<svg xmlns="http://www.w3.org/2000/svg" width="37.522" height="37.523" viewBox="0 0 37.522 37.523"><defs><style>.a{fill:#fff;}</style></defs><path class="a" d="M150.761,75a18.761,18.761,0,1,0,18.761,18.761A18.783,18.783,0,0,0,150.761,75Zm10.944,19.543a.781.781,0,0,1-.782.782h-8.6v8.6a.781.781,0,0,1-.782.782H149.98a.781.781,0,0,1-.782-.782v-8.6h-8.6a.781.781,0,0,1-.782-.782V92.98a.781.781,0,0,1,.782-.782h8.6V83.6a.781.781,0,0,1,.782-.782h1.563a.781.781,0,0,1,.782.782v8.6h8.6a.781.781,0,0,1,.782.782Z" transform="translate(-132 -75)"/></svg>