<svg xmlns="http://www.w3.org/2000/svg" xmlns:xlink="http://www.w3.org/1999/xlink" width="1932.79" height="1132.94" viewBox="0 0 1932.79 1132.94"><defs><style>.a{fill:#218ee8;}.b{opacity:0.44;}.c{fill:none;stroke:#fff;stroke-miterlimit:10;stroke-width:2px;}.d,.w{opacity:0.38;}.e{fill:url(#a);}.f{fill:url(#b);}.g{fill:url(#c);}.h{fill:url(#d);}.i{fill:url(#e);}.j{fill:url(#f);}.k{fill:url(#g);}.l{fill:url(#h);}.m{fill:url(#i);}.n{fill:url(#j);}.o{fill:url(#k);}.p{fill:url(#l);}.q{fill:url(#m);}.r{fill:url(#n);}.s{fill:url(#o);}.t{fill:url(#p);}.u{fill:url(#q);}.v{fill:#58ffff;}.w,.y{mix-blend-mode:multiply;isolation:isolate;}.x{fill:#3a80f8;}.y{fill:url(#r);}.z{fill:url(#s);}.aa{fill:url(#t);}.ab{fill:url(#u);}.ac{fill:url(#v);}.ad{fill:url(#w);}.ae{fill:url(#x);}.af{fill:url(#y);}.ag{fill:url(#z);}.ah{fill:url(#aa);}.ai{fill:url(#ab);}.aj{fill:url(#ac);}.ak{fill:url(#ad);}.al{fill:url(#ae);}.am{fill:url(#af);}.an{fill:url(#ag);}.ao{fill:url(#ah);}.ap{fill:url(#ai);}.aq{fill:url(#aj);}.ar{fill:url(#ak);}.as{fill:url(#al);}.at{fill:url(#am);}.au{fill:url(#an);}.av{fill:url(#ao);}.aw{fill:url(#as);}.ax{fill:url(#av);}.ay{fill:url(#aw);}.az{fill:url(#ax);}.ba{fill:url(#ay);}.bb{fill:url(#az);}.bc{fill:url(#ba);}.bd{fill:url(#bb);}.be{fill:url(#bc);}.bf{fill:url(#bd);}.bg{fill:url(#be);}.bh{fill:url(#bf);}.bi{fill:url(#bg);}.bj{fill:url(#bh);}.bk{fill:url(#bi);}.bl{fill:url(#bj);}.bm{fill:url(#bk);}.bn{fill:url(#bl);}.bo{fill:url(#bm);}.bp{fill:url(#bn);}.bq{fill:url(#bo);}.br{fill:url(#bp);}.bs{fill:url(#bq);}.bt{fill:url(#br);}.bu{fill:url(#bs);}.bv{fill:url(#bt);}.bw{fill:url(#bu);}.bx{fill:url(#bv);}.by{fill:url(#bw);}.bz{fill:url(#bx);}.ca{fill:url(#by);}.cb{fill:url(#bz);}.cc{fill:url(#ca);}.cd{fill:url(#cb);}</style><linearGradient id="a" x1="22.735" y1="-0.12" x2="23.026" y2="1.535" gradientUnits="objectBoundingBox"><stop offset="0" stop-color="#821dc5"/><stop offset="1" stop-color="#320d7f"/></linearGradient><linearGradient id="b" x1="24.44" y1="-0.689" x2="24.59" y2="0.982" gradientUnits="objectBoundingBox"><stop offset="0" stop-color="#7519ba"/><stop offset="1" stop-color="#230378"/></linearGradient><linearGradient id="c" x1="238.179" y1="-57.489" x2="239.665" y2="4.116" xlink:href="#b"/><linearGradient id="d" x1="238.732" y1="-34.594" x2="240.218" y2="27.012" xlink:href="#b"/><linearGradient id="e" x1="24.59" y1="0.104" x2="24.779" y2="2.035" gradientUnits="objectBoundingBox"><stop offset="0" stop-color="#f43bde"/><stop offset="1" stop-color="#4615a5"/></linearGradient><linearGradient id="f" x1="24.93" y1="-0.071" x2="25.147" y2="2.246" gradientUnits="objectBoundingBox"><stop offset="0" stop-color="#e42ed3"/><stop offset="0.996" stop-color="#2b0d99"/></linearGradient><linearGradient id="g" x1="182.904" y1="-0.635" x2="184.387" y2="10.005" xlink:href="#a"/><linearGradient id="h" x1="739.712" y1="-0.935" x2="745.719" y2="21.793" xlink:href="#a"/><linearGradient id="i" x1="801.665" y1="0.5" x2="802.665" y2="0.5" xlink:href="#b"/><linearGradient id="j" x1="921.519" y1="-3.285" x2="919.303" y2="15.505" gradientUnits="objectBoundingBox"><stop offset="0" stop-color="#c93bde"/><stop offset="1" stop-color="#4615a5"/></linearGradient><linearGradient id="k" x1="802.74" y1="0.5" x2="803.741" y2="0.5" xlink:href="#b"/><linearGradient id="l" x1="921.779" y1="-2.782" x2="919.563" y2="7.516" xlink:href="#j"/><linearGradient id="m" x1="802.469" y1="0.5" x2="803.469" y2="0.5" xlink:href="#b"/><linearGradient id="n" x1="922.06" y1="-4.124" x2="919.844" y2="6.256" xlink:href="#j"/><linearGradient id="o" x1="86.299" y1="-2.759" x2="87.09" y2="6.303" xlink:href="#a"/><linearGradient id="p" x1="0.5" y1="0.039" x2="0.5" y2="0.758" gradientUnits="objectBoundingBox"><stop offset="0" stop-color="#00e6ff"/><stop offset="0.046" stop-color="#02e1ff"/><stop offset="0.265" stop-color="#09cbff"/><stop offset="0.292" stop-color="#0ac8ff"/><stop offset="1" stop-color="#237ffe"/></linearGradient><linearGradient id="q" x1="26.132" y1="-0.285" x2="26.225" y2="0.87" gradientUnits="objectBoundingBox"><stop offset="0" stop-color="#42b2f1"/><stop offset="1" stop-color="#2a54d3"/></linearGradient><linearGradient id="r" y1="0.5" x2="1" y2="0.5" gradientUnits="objectBoundingBox"><stop offset="0" stop-color="#e02dd2"/><stop offset="1" stop-color="#fff"/></linearGradient><linearGradient id="s" x1="0.298" y1="0.46" x2="0.824" y2="0.19" gradientUnits="objectBoundingBox"><stop offset="0.004" stop-color="#48caff"/><stop offset="0.25" stop-color="#3fa4ff"/><stop offset="0.587" stop-color="#3577ff"/><stop offset="0.849" stop-color="#2f5bff"/><stop offset="1" stop-color="#2d51ff"/></linearGradient><linearGradient id="t" y1="0.5" x2="1" y2="0.5" gradientUnits="objectBoundingBox"><stop offset="0" stop-color="#3a80f8"/><stop offset="1" stop-color="#2e54ff"/></linearGradient><linearGradient id="u" x1="1.214" y1="0.467" x2="0.079" y2="0.52" gradientUnits="objectBoundingBox"><stop offset="0" stop-color="#c1ffff"/><stop offset="1" stop-color="#56abff"/></linearGradient><linearGradient id="v" x1="1.026" y1="0.824" x2="-0.045" y2="0.165" xlink:href="#p"/><linearGradient id="w" x1="0.673" y1="0.535" x2="-0.055" y2="0.388" gradientUnits="objectBoundingBox"><stop offset="0" stop-color="#56abff"/><stop offset="1" stop-color="#2e54ff"/></linearGradient><linearGradient id="x" x1="1.254" y1="0.408" x2="-0.6" y2="0.634" xlink:href="#p"/><linearGradient id="y" x1="1.022" y1="0.407" x2="0.057" y2="0.53" xlink:href="#u"/><linearGradient id="z" x1="1.731" y1="0.451" x2="-0.687" y2="0.547" gradientUnits="objectBoundingBox"><stop offset="0" stop-color="#48caff"/><stop offset="1" stop-color="#c1ffff"/></linearGradient><linearGradient id="aa" x1="0.537" y1="1.353" x2="0.502" y2="0.55" xlink:href="#s"/><linearGradient id="ab" x1="0.5" y1="-0.103" x2="0.5" y2="0.723" xlink:href="#s"/><linearGradient id="ac" x1="0.5" y1="0.166" x2="0.5" y2="0.943" xlink:href="#s"/><linearGradient id="ad" x1="0.479" y1="-0.136" x2="0.495" y2="0.336" xlink:href="#s"/><linearGradient id="ae" x1="0.593" y1="-1.922" x2="0.502" y2="-0.002" xlink:href="#s"/><linearGradient id="af" x1="0.742" y1="0.449" x2="0.151" y2="0.574" gradientUnits="objectBoundingBox"><stop offset="0.004" stop-color="#48caff"/><stop offset="0.17" stop-color="#44bcff"/><stop offset="0.483" stop-color="#3c98ff"/><stop offset="0.905" stop-color="#305eff"/><stop offset="1" stop-color="#2d51ff"/></linearGradient><linearGradient id="ag" x1="-0.169" y1="-1.974" x2="0.651" y2="1.059" xlink:href="#s"/><linearGradient id="ah" x1="0.864" y1="0.478" x2="-0.506" y2="0.527" xlink:href="#s"/><linearGradient id="ai" x1="0.895" y1="0.175" x2="-0.185" y2="0.865" xlink:href="#s"/><linearGradient id="aj" x1="0.814" y1="0.52" x2="0.1" y2="0.475" xlink:href="#u"/><linearGradient id="ak" x1="0.976" y1="0.534" x2="-0.39" y2="0.436" xlink:href="#z"/><radialGradient id="al" cx="0.469" cy="0.157" r="0.748" gradientTransform="translate(-0.32) scale(1.64 1)" gradientUnits="objectBoundingBox"><stop offset="0.005" stop-color="#1e5092"/><stop offset="1" stop-color="#0f0f4f"/></radialGradient><linearGradient id="am" x1="0.63" y1="-5.392" x2="0.496" y2="0.339" gradientUnits="objectBoundingBox"><stop offset="0" stop-color="#0e1e75"/><stop offset="1" stop-color="#060330"/></linearGradient><linearGradient id="an" x1="0.574" y1="-2.975" x2="0.439" y2="2.755" xlink:href="#am"/><linearGradient id="ao" x1="0.574" y1="-2.975" x2="0.439" y2="2.755" xlink:href="#am"/><linearGradient id="as" x1="0.574" y1="-2.975" x2="0.439" y2="2.755" xlink:href="#am"/><linearGradient id="av" x1="0.564" y1="-2.316" x2="0.421" y2="3.191" xlink:href="#am"/><linearGradient id="aw" x1="1.587" y1="-10.314" x2="-1.173" y2="17.138" xlink:href="#am"/><linearGradient id="ax" x1="1.627" y1="-10.709" x2="-1.131" y2="16.714" xlink:href="#am"/><linearGradient id="ay" x1="1.271" y1="-7.14" x2="-1.489" y2="20.247" xlink:href="#am"/><linearGradient id="az" x1="1.48" y1="-9.229" x2="-1.281" y2="18.17" xlink:href="#am"/><linearGradient id="ba" x1="1.252" y1="-6.97" x2="-1.504" y2="20.399" xlink:href="#am"/><linearGradient id="bb" x1="1.618" y1="-10.566" x2="-1.149" y2="16.812" xlink:href="#am"/><linearGradient id="bc" x1="1.554" y1="-9.979" x2="-1.206" y2="17.463" xlink:href="#am"/><linearGradient id="bd" x1="0.542" y1="-0.999" x2="0.324" y2="4.892" xlink:href="#am"/><linearGradient id="be" x1="24.253" y1="-1667.769" x2="-23.25" y2="1668.102" xlink:href="#am"/><linearGradient id="bf" x1="0.925" y1="-3.746" x2="-1.835" y2="23.826" xlink:href="#am"/><linearGradient id="bg" x1="1.123" y1="-5.431" x2="-1.511" y2="19.613" xlink:href="#am"/><linearGradient id="bh" x1="1.105" y1="-5.509" x2="-1.651" y2="21.862" xlink:href="#am"/><linearGradient id="bi" x1="1.092" y1="-5.38" x2="-1.664" y2="21.986" xlink:href="#am"/><linearGradient id="bj" x1="0.976" y1="-4.229" x2="-1.78" y2="23.13" xlink:href="#am"/><linearGradient id="bk" x1="0.902" y1="-3.486" x2="-1.861" y2="23.9" xlink:href="#am"/><linearGradient id="bl" x1="0.888" y1="-3.352" x2="-1.868" y2="24.02" xlink:href="#am"/><linearGradient id="bm" x1="0.888" y1="-3.352" x2="-1.869" y2="24.019" xlink:href="#am"/><linearGradient id="bn" x1="0.724" y1="-2.688" x2="-2.036" y2="34.383" xlink:href="#am"/><linearGradient id="bo" x1="1.799" y1="-12.387" x2="-0.96" y2="14.981" xlink:href="#am"/><linearGradient id="bp" x1="1.677" y1="-11.184" x2="-1.082" y2="16.197" xlink:href="#am"/><linearGradient id="bq" x1="1.861" y1="-13.002" x2="-0.899" y2="14.382" xlink:href="#am"/><linearGradient id="br" x1="1.454" y1="-8.988" x2="-1.303" y2="18.43" xlink:href="#am"/><linearGradient id="bs" x1="1.841" y1="-12.803" x2="-0.923" y2="14.607" xlink:href="#am"/><linearGradient id="bt" x1="1.841" y1="-12.803" x2="-0.923" y2="14.608" xlink:href="#am"/><linearGradient id="bu" x1="2.129" y1="-12.793" x2="-1.181" y2="14.618" xlink:href="#am"/><linearGradient id="bv" x1="1.765" y1="-12.045" x2="-0.997" y2="15.349" xlink:href="#am"/><linearGradient id="bw" x1="1.638" y1="-10.796" x2="-1.121" y2="16.59" xlink:href="#am"/><linearGradient id="bx" x1="1.448" y1="-8.915" x2="-1.31" y2="18.47" xlink:href="#am"/><linearGradient id="by" x1="0.5" y1="-0.112" x2="0.5" y2="0.714" gradientUnits="objectBoundingBox"><stop offset="0.004" stop-color="#48caff"/><stop offset="0.155" stop-color="#45bfff"/><stop offset="0.419" stop-color="#3fa2ff"/><stop offset="0.761" stop-color="#3575ff"/><stop offset="1" stop-color="#2d51ff"/></linearGradient><linearGradient id="bz" x1="0.704" y1="0.276" x2="0.139" y2="0.713" xlink:href="#s"/><linearGradient id="ca" x1="0.5" y1="0.355" x2="0.5" y2="1.01" xlink:href="#af"/><linearGradient id="cb" x1="0.21" y1="-0.268" x2="0.365" y2="0.345" gradientUnits="objectBoundingBox"><stop offset="0.23" stop-color="#48caff"/><stop offset="0.344" stop-color="#46c3ff"/><stop offset="0.502" stop-color="#42b1ff"/><stop offset="0.685" stop-color="#3b94ff"/><stop offset="0.887" stop-color="#326bff"/><stop offset="1" stop-color="#2d51ff"/></linearGradient></defs><rect class="a" width="1920" height="1080"/><g class="b" transform="translate(-68.105 -25.22)"><line class="c" y2="73.788" transform="translate(78.105 202.326)"/><line class="c" y1="26.832" transform="translate(108.219 225.804)"/><line class="c" y1="20.124" transform="translate(138.333 229.158)"/><line class="c" y1="20.124" transform="translate(407.915 229.158)"/><line class="c" y1="13.415" transform="translate(168.447 232.512)"/><line class="c" y1="76.471" transform="translate(198.56 200.985)"/><line class="c" y1="154.284" transform="translate(228.674 162.078)"/><line class="c" y1="335.4" transform="translate(258.788 71.52)"/><line class="c" y1="127.452" transform="translate(288.902 175.494)"/><line class="c" y1="67.08" transform="translate(319.016 205.68)"/><line class="c" y1="127.452" transform="translate(349.13 175.494)"/><line class="c" y1="40.248" transform="translate(379.244 219.096)"/><line class="c" y1="40.248" transform="translate(439.472 219.096)"/><line class="c" y1="120.744" transform="translate(469.586 178.848)"/><line class="c" y1="37.266" transform="translate(681.826 220.587)"/><line class="c" y1="74.534" transform="translate(713.382 201.953)"/><line class="c" y2="12.422" transform="translate(743.496 233.009)"/><line class="c" y1="221.364" transform="translate(499.7 128.538)"/><line class="c" y1="87.204" transform="translate(529.814 195.618)"/><line class="c" y1="40.248" transform="translate(559.927 219.096)"/><line class="c" y1="20.124" transform="translate(590.041 229.158)"/><line class="c" y1="74.534" transform="translate(774.872 201.953)"/><line class="c" y1="223.6" transform="translate(804.986 127.42)"/><line class="c" y1="268.32" transform="translate(835.1 105.06)"/><line class="c" y1="368.94" transform="translate(865.214 54.75)"/><line class="c" y1="268.32" transform="translate(895.328 105.06)"/><line class="c" y2="190.06" transform="translate(925.442 144.19)"/><line class="c" y1="120.744" transform="translate(620.155 178.848)"/><line class="c" y1="53.664" transform="translate(650.269 212.388)"/><line class="c" y2="136.644" transform="translate(961.326 170.898)"/><line class="c" y2="89.44" transform="translate(991.44 194.5)"/><line class="c" y1="20.124" transform="translate(1021.554 229.158)"/><line class="c" y1="68" transform="translate(1291.105 205.22)"/><line class="c" y1="13.415" transform="translate(1051.667 232.512)"/><line class="c" y2="20.124" transform="translate(1966.265 229.158)"/><line class="c" y2="87.204" transform="translate(1930.38 195.618)"/><line class="c" y2="20.124" transform="translate(1870.152 229.158)"/><line class="c" y1="76.471" transform="translate(1081.781 200.985)"/><line class="c" y1="154.284" transform="translate(1111.895 162.078)"/><line class="c" y1="87.204" transform="translate(1142.009 195.618)"/><line class="c" y1="127.452" transform="translate(1172.123 175.494)"/><line class="c" y1="221.364" transform="translate(1202.237 128.538)"/><line class="c" y1="194.532" transform="translate(1232.351 141.954)"/><line class="c" y1="154.284" transform="translate(1262.465 162.078)"/><line class="c" y1="194.532" transform="translate(1322.693 141.954)"/><line class="c" y1="268.32" transform="translate(1352.807 105.06)"/><line class="c" y1="20.124" transform="translate(1565.047 229.158)"/><line class="c" y1="40.248" transform="translate(1596.603 219.096)"/><line class="c" y2="6.708" transform="translate(1626.717 235.866)"/><line class="c" y2="6.708" transform="translate(1999.895 235.866)"/><line class="c" y1="40.248" transform="translate(1899.275 219.096)"/><line class="c" y2="6.708" transform="translate(1837.785 235.866)"/><line class="c" y1="368.94" transform="translate(1382.921 54.75)"/><line class="c" y1="194.532" transform="translate(1413.035 141.954)"/><line class="c" y1="120.744" transform="translate(1443.149 178.848)"/><line class="c" y1="53.664" transform="translate(1473.262 212.388)"/><line class="c" y1="40.248" transform="translate(1658.093 219.096)"/><line class="c" y1="120.744" transform="translate(1688.207 178.848)"/><line class="c" y1="46.956" transform="translate(1718.321 215.742)"/><line class="c" y1="87.204" transform="translate(1748.435 195.618)"/><line class="c" y1="40.248" transform="translate(1778.549 219.096)"/><line class="c" y1="20.124" transform="translate(1808.663 229.158)"/><line class="c" y1="120.744" transform="translate(1503.376 178.848)"/><line class="c" y1="53.664" transform="translate(1533.49 212.388)"/></g><g class="d" transform="translate(-68.105 147.78)"><line class="c" y2="73.788" transform="translate(78.105 202.326)"/><line class="c" y1="26.832" transform="translate(108.219 225.804)"/><line class="c" y1="20.124" transform="translate(138.333 229.158)"/><line class="c" y1="20.124" transform="translate(407.915 229.158)"/><line class="c" y1="13.415" transform="translate(168.447 232.512)"/><line class="c" y1="76.471" transform="translate(198.56 200.985)"/><line class="c" y1="154.284" transform="translate(228.674 162.078)"/><line class="c" y1="335.4" transform="translate(258.788 71.52)"/><line class="c" y1="127.452" transform="translate(288.902 175.494)"/><line class="c" y1="67.08" transform="translate(319.016 205.68)"/><line class="c" y1="127.452" transform="translate(349.13 175.494)"/><line class="c" y1="40.248" transform="translate(379.244 219.096)"/><line class="c" y1="40.248" transform="translate(439.472 219.096)"/><line class="c" y1="120.744" transform="translate(469.586 178.848)"/><line class="c" y1="37.266" transform="translate(681.826 220.587)"/><line class="c" y1="74.534" transform="translate(713.382 201.953)"/><line class="c" y2="12.422" transform="translate(743.496 233.009)"/><line class="c" y1="221.364" transform="translate(499.7 128.538)"/><line class="c" y1="87.204" transform="translate(529.814 195.618)"/><line class="c" y1="40.248" transform="translate(559.927 219.096)"/><line class="c" y1="20.124" transform="translate(590.041 229.158)"/><line class="c" y1="74.534" transform="translate(774.872 201.953)"/><line class="c" y1="223.6" transform="translate(804.986 127.42)"/><line class="c" y1="268.32" transform="translate(835.1 105.06)"/><line class="c" y1="368.94" transform="translate(865.214 54.75)"/><line class="c" y1="268.32" transform="translate(895.328 105.06)"/><line class="c" y2="190.06" transform="translate(925.442 144.19)"/><line class="c" y1="120.744" transform="translate(620.155 178.848)"/><line class="c" y1="53.664" transform="translate(650.269 212.388)"/><line class="c" y2="136.644" transform="translate(961.326 170.898)"/><line class="c" y2="89.44" transform="translate(991.44 194.5)"/><line class="c" y1="20.124" transform="translate(1021.554 229.158)"/><line class="c" y1="68" transform="translate(1291.105 205.22)"/><line class="c" y1="13.415" transform="translate(1051.667 232.512)"/><line class="c" y2="20.124" transform="translate(1966.265 229.158)"/><line class="c" y2="87.204" transform="translate(1930.38 195.618)"/><line class="c" y2="20.124" transform="translate(1870.152 229.158)"/><line class="c" y1="76.471" transform="translate(1081.781 200.985)"/><line class="c" y1="154.284" transform="translate(1111.895 162.078)"/><line class="c" y1="87.204" transform="translate(1142.009 195.618)"/><line class="c" y1="127.452" transform="translate(1172.123 175.494)"/><line class="c" y1="221.364" transform="translate(1202.237 128.538)"/><line class="c" y1="194.532" transform="translate(1232.351 141.954)"/><line class="c" y1="154.284" transform="translate(1262.465 162.078)"/><line class="c" y1="194.532" transform="translate(1322.693 141.954)"/><line class="c" y1="268.32" transform="translate(1352.807 105.06)"/><line class="c" y1="20.124" transform="translate(1565.047 229.158)"/><line class="c" y1="40.248" transform="translate(1596.603 219.096)"/><line class="c" y2="6.708" transform="translate(1626.717 235.866)"/><line class="c" y2="6.708" transform="translate(1999.895 235.866)"/><line class="c" y1="40.248" transform="translate(1899.275 219.096)"/><line class="c" y2="6.708" transform="translate(1837.785 235.866)"/><line class="c" y1="368.94" transform="translate(1382.921 54.75)"/><line class="c" y1="194.532" transform="translate(1413.035 141.954)"/><line class="c" y1="120.744" transform="translate(1443.149 178.848)"/><line class="c" y1="53.664" transform="translate(1473.262 212.388)"/><line class="c" y1="40.248" transform="translate(1658.093 219.096)"/><line class="c" y1="120.744" transform="translate(1688.207 178.848)"/><line class="c" y1="46.956" transform="translate(1718.321 215.742)"/><line class="c" y1="87.204" transform="translate(1748.435 195.618)"/><line class="c" y1="40.248" transform="translate(1778.549 219.096)"/><line class="c" y1="20.124" transform="translate(1808.663 229.158)"/><line class="c" y1="120.744" transform="translate(1503.376 178.848)"/><line class="c" y1="53.664" transform="translate(1533.49 212.388)"/></g><g transform="translate(-574.111 186.669)"><g transform="translate(673.111 163.331)"><path class="e" d="M855.379,187.267c0-20.726-20.842-29.476-36.681-20.316L696.361,237.509c-14.854,8.551-23.25,27.006-23.25,44.319V643.121c.05,20.29,18.327,32.106,35.895,21.952l123.058-71.124c16.345-9.541,23.315-21.035,23.315-44.922Z" transform="translate(-673.111 -163.331)"/><path class="f" d="M842.488,165.674a24.4,24.4,0,0,0-10.5-2.343,26.554,26.554,0,0,0-13.294,3.62L696.361,237.509c-14.854,8.551-23.25,27.006-23.25,44.319V643.121c.037,14.9,9.9,25.218,22.091,25.639,0,0-20.624-1.368-20.624-25.639V281.828c0-18,9.048-35.295,22.516-43.048l122.339-70.558a29.03,29.03,0,0,1,12.634-4A30.1,30.1,0,0,1,842.488,165.674Z" transform="translate(-673.111 -163.331)"/></g><path class="g" d="M690.138,696.131c-4.822,2.631-17.015-2.546-17.015-6.273l-.012-6.718c0,3.727,12.211,9.88,17.035,7.25Z" transform="translate(0 -77.404)"/><path class="h" d="M690.138,327.021c-4.822,2.631-17.015-2.547-17.015-6.273l-.012-6.718c0,3.727,12.211,9.88,17.035,7.25Z" transform="translate(0 -22.44)"/><g transform="translate(685.555 171.009)"><path class="i" d="M855.8,563.081c.022-.148.041-.3.062-.452a63.81,63.81,0,0,0,.653-9.285V189.283c0-9.541-3.205-13.475-6.3-15.3-4.421-2.606-10.411-2.072-16.873,1.506l-125.9,72.69c-10.863,6.273-19.7,21.52-19.7,33.988V654.844c0,6.209,2.278,10.618,6.254,12.914A10.615,10.615,0,0,0,699.512,669a17.889,17.889,0,0,0,8.81-2.681l128.937-74.442a36.117,36.117,0,0,0,9.216-7.572c4.2-4.764,7.759-11.438,9.266-20.876C855.76,563.31,855.781,563.2,855.8,563.081ZM848.72,176.51c3.5,2.062,5.349,6.564,5.349,13.017V553.343c0,21.491-9.806,31.663-18.033,36.412L707.1,664.2c-4.5,2.6-8.673,3.06-11.734,1.294-3.03-1.749-4.7-5.53-4.7-10.647V282.166c0-11.535,8.18-25.641,18.234-31.446l125.88-72.676C840.284,175,845.232,174.455,848.72,176.51Z" transform="translate(-687.732 -172.352)"/><path class="j" d="M834.312,177.025,708.423,249.706c-10.432,6.023-18.968,20.746-18.968,32.717V655.1c0,11.76,8.386,16.542,18.635,10.624l128.936-74.442c10.321-5.958,18.766-17.612,18.766-37.683V189.784C855.792,174.925,846.156,170.465,834.312,177.025Z" transform="translate(-687.989 -172.609)"/></g><path class="k" d="M790.075,235.208l-19.756,11.406c-.7.405-1.276-.029-1.276-.964a3.068,3.068,0,0,1,1.276-2.438l19.756-11.405c.7-.405,1.276.029,1.276.964A3.066,3.066,0,0,1,790.075,235.208Z" transform="translate(-14.285 -10.174)"/><path class="l" d="M807.48,225.011a6.066,6.066,0,0,1-2.753,4.748c-1.521.878-2.753.175-2.753-1.569a6.067,6.067,0,0,1,2.753-4.749C806.246,222.563,807.48,223.266,807.48,225.011Z" transform="translate(-19.189 -8.895)"/><g transform="translate(676.206 329.97)"><g transform="translate(0 0)"><path class="m" d="M682.618,363.261a4.657,4.657,0,0,0-1.779-3.654c-1.065-.688-1.563-.5-1.919-.292l-1.382.9.677,11.668,2.467,2.267s.869-.644,1.216-.86c.6-.37.72-1.354.72-2.294Z" transform="translate(-676.866 -359.126)"/><path class="n" d="M679.26,374.272l-.6-.346a4.6,4.6,0,0,1-1.912-3.655v-8.33c0-1.4.86-2.054,1.912-1.446l.6.346a4.6,4.6,0,0,1,1.912,3.655v8.331C681.172,374.228,680.312,374.879,679.26,374.272Z" transform="translate(-676.748 -359.296)"/></g><g transform="translate(0 25.58)"><path class="o" d="M682.619,393.311a4.65,4.65,0,0,0-1.776-3.649c-1.063-.686-1.56-.5-1.916-.29l-1.381.9.677,23.553,2.248,2.165s1.083-.544,1.43-.76c.595-.369.719-1.352.719-2.29Z" transform="translate(-676.867 -389.181)"/><path class="p" d="M679.12,415.991l-.32-.185a4.934,4.934,0,0,1-2.052-3.921V392.062c0-1.5.923-2.2,2.052-1.551l.32.185a4.931,4.931,0,0,1,2.052,3.92V414.44C681.172,415.944,680.249,416.643,679.12,415.991Z" transform="translate(-676.748 -389.343)"/></g><g transform="translate(0 59.626)"><path class="q" d="M682.619,433.316a4.651,4.651,0,0,0-1.777-3.65c-1.063-.687-1.561-.5-1.917-.291l-1.381.9.677,23.562,2.23,1.952a9.687,9.687,0,0,0,1.449-.547c.595-.37.719-1.352.719-2.291Z" transform="translate(-676.867 -429.184)"/><path class="r" d="M679.12,455.791l-.32-.185a4.934,4.934,0,0,1-2.052-3.921V432.068c0-1.5.923-2.2,2.052-1.551l.32.185a4.931,4.931,0,0,1,2.052,3.92V454.24C681.172,455.744,680.249,456.443,679.12,455.791Z" transform="translate(-676.748 -429.346)"/></g></g><path class="s" d="M817.993,673.121l-45.149,26.067c-.594.343-1.08-.025-1.08-.817a2.6,2.6,0,0,1,1.08-2.065l45.149-26.066c.595-.343,1.081.025,1.081.817A2.6,2.6,0,0,1,817.993,673.121Z" transform="translate(-14.69 -75.464)"/><g transform="translate(691.409 195.612)"><path class="t" d="M852.869,560.269a2.877,2.877,0,0,1-1.438,2.491L696.675,652.109a1.151,1.151,0,0,1-1.726-1V293.593a2.877,2.877,0,0,1,1.438-2.491l154.756-89.348a1.151,1.151,0,0,1,1.726,1Z" transform="translate(-694.661 -201.31)"/><path class="u" d="M696.049,652.5a1.444,1.444,0,0,1-1.438-1.44V293.543a3.172,3.172,0,0,1,1.582-2.74l154.756-89.348a1.438,1.438,0,0,1,2.157,1.245V560.219a3.17,3.17,0,0,1-1.582,2.74L696.769,652.307A1.435,1.435,0,0,1,696.049,652.5ZM852.1,201.953a.857.857,0,0,0-.863,0L696.481,291.3a2.6,2.6,0,0,0-1.295,2.242V651.062a.863.863,0,0,0,1.295.747l154.756-89.349a2.6,2.6,0,0,0,1.294-2.242V202.7A.853.853,0,0,0,852.1,201.953Z" transform="translate(-694.611 -201.26)"/></g><g transform="translate(713.801 276.605)"><g transform="translate(23.148 22.957)"><path class="v" d="M769.375,337.375,793.594,323.4v4.06l-24.219,13.978Z" transform="translate(-751.284 -323.398)"/><path class="v" d="M748.118,350.736l13.44-7.76v4.06l-13.44,7.76Z" transform="translate(-748.118 -326.313)"/></g><g transform="translate(0 49.618)"><path class="v" d="M720.921,365.7,740,354.723v4.06l-19.076,10.981Z" transform="translate(-720.921 -354.723)"/></g><g transform="translate(0 11.478)"><path class="v" d="M782.595,317.393l12.968-7.482v4.06l-12.968,7.482Z" transform="translate(-730.104 -309.911)"/><path class="v" d="M720.921,352.822l11.736-6.761v4.06l-11.736,6.761Z" transform="translate(-720.921 -315.294)"/><path class="v" d="M741.279,339.473l30.512-17.616v4.06l-30.512,17.616Z" transform="translate(-723.952 -311.69)"/><path class="v" d="M721,339.349l13.817-8.008v4.06L721,343.409Z" transform="translate(-720.933 -313.102)"/></g><g transform="translate(20.843)"><path class="v" d="M764.749,312.675l28.156-16.251v4.06l-28.156,16.251Z" transform="translate(-748.29 -296.424)"/><path class="v" d="M745.41,325.491l11.808-6.817v4.06l-11.808,6.817Z" transform="translate(-745.41 -299.737)"/></g></g><g transform="translate(766.245 302.306)"><g transform="translate(0 0)"><g transform="translate(23.148 22.957)"><path class="v" d="M830.995,367.573,855.214,353.6v4.06l-24.219,13.978Z" transform="translate(-812.903 -353.595)"/><path class="v" d="M809.738,380.933l13.44-7.76v4.06l-13.44,7.76Z" transform="translate(-809.738 -356.511)"/></g><g transform="translate(0 49.618)"><path class="v" d="M782.54,395.9l19.076-10.981v4.06L782.54,399.962Z" transform="translate(-782.54 -384.921)"/></g><g transform="translate(0 11.478)"><path class="v" d="M844.214,347.59l12.968-7.482v4.06l-12.968,7.482Z" transform="translate(-791.724 -340.108)"/><path class="v" d="M782.54,383.019l11.736-6.761v4.06l-11.736,6.761Z" transform="translate(-782.54 -345.491)"/><path class="v" d="M802.9,369.671l30.512-17.616v4.06L802.9,373.731Z" transform="translate(-785.572 -341.887)"/><path class="v" d="M782.623,369.546l13.817-8.008v4.06l-13.817,8.008Z" transform="translate(-782.553 -343.299)"/></g><g transform="translate(20.843)"><path class="v" d="M826.368,342.873l28.156-16.251v4.06l-28.156,16.251Z" transform="translate(-809.909 -326.622)"/><path class="v" d="M807.03,355.688l11.808-6.817v4.06l-11.808,6.817Z" transform="translate(-807.03 -329.935)"/></g></g></g><g class="w" transform="translate(698.747 389.394)"><path class="x" d="M816.108,498.932A3.561,3.561,0,0,0,818,496.094v-1.12c0-1.044-.847-1.467-1.891-.946a3.56,3.56,0,0,0-1.892,2.838v1.12C814.216,499.031,815.063,499.455,816.108,498.932Z" transform="translate(-719.758 -438.605)"/><path class="x" d="M827.012,496.806a3.557,3.557,0,0,0,1.892-2.838v-9.188c0-1.044-.847-1.468-1.892-.946a3.56,3.56,0,0,0-1.891,2.838v9.188C825.121,496.906,825.968,497.329,827.012,496.806Z" transform="translate(-721.382 -437.087)"/><path class="x" d="M805.068,507.781a3.56,3.56,0,0,0,1.891-2.838v-9.188c0-1.045-.847-1.468-1.891-.946a3.558,3.558,0,0,0-1.892,2.838v9.188C803.176,507.88,804.023,508.3,805.068,507.781Z" transform="translate(-718.115 -438.721)"/><path class="x" d="M871.351,497.551a3.558,3.558,0,0,0,1.892-2.838v-64.6c0-1.045-.847-1.468-1.892-.946a3.558,3.558,0,0,0-1.891,2.838v64.6C869.46,497.65,870.307,498.073,871.351,497.551Z" transform="translate(-727.985 -428.947)"/><path class="x" d="M705.124,580.636a3.559,3.559,0,0,0,1.891-2.838V513.2c0-1.045-.847-1.468-1.891-.946a3.558,3.558,0,0,0-1.892,2.838v64.6C703.232,580.735,704.079,581.158,705.124,580.636Z" transform="translate(-703.232 -441.319)"/><path class="x" d="M770.923,554.376a3.56,3.56,0,0,0,1.892-2.838V470.829c0-1.045-.847-1.468-1.892-.946a3.559,3.559,0,0,0-1.891,2.838V553.43C769.032,554.475,769.879,554.9,770.923,554.376Z" transform="translate(-713.03 -435.009)"/><path class="x" d="M748.441,565.619a3.559,3.559,0,0,0,1.891-2.838V482.072c0-1.044-.847-1.467-1.891-.946a3.56,3.56,0,0,0-1.892,2.838v80.709C746.549,565.719,747.4,566.142,748.441,565.619Z" transform="translate(-709.682 -436.684)"/><path class="x" d="M759.618,572.071a3.56,3.56,0,0,0,1.891-2.838V458.884c0-1.044-.847-1.467-1.891-.946a3.559,3.559,0,0,0-1.892,2.838V571.126C757.726,572.17,758.573,572.594,759.618,572.071Z" transform="translate(-711.347 -433.231)"/><path class="x" d="M860.466,495.6a3.559,3.559,0,0,0,1.891-2.838V446.1c0-1.044-.847-1.468-1.891-.946a3.559,3.559,0,0,0-1.892,2.838v46.66C858.574,495.695,859.421,496.118,860.466,495.6Z" transform="translate(-726.364 -431.327)"/><path class="x" d="M716.434,567.563l.534-.267a3.056,3.056,0,0,0,1.624-2.437V517.664c0-.9-.727-1.261-1.624-.812l-.534.266a3.06,3.06,0,0,0-1.625,2.438V566.75C714.809,567.648,715.537,568.011,716.434,567.563Z" transform="translate(-704.956 -442.008)"/><path class="x" d="M782.291,534.645a3.56,3.56,0,0,0,1.891-2.838v-46.66c0-1.045-.847-1.468-1.891-.946a3.557,3.557,0,0,0-1.892,2.838V533.7C780.4,534.744,781.246,535.168,782.291,534.645Z" transform="translate(-714.723 -437.141)"/><path class="x" d="M737.861,556.865a3.56,3.56,0,0,0,1.891-2.838V507.366c0-1.044-.847-1.468-1.891-.946a3.559,3.559,0,0,0-1.892,2.838v46.661C735.969,556.964,736.816,557.387,737.861,556.865Z" transform="translate(-708.107 -440.45)"/><path class="x" d="M849.051,496.716a3.559,3.559,0,0,0,1.891-2.838V458.192c0-1.044-.847-1.468-1.891-.946a3.559,3.559,0,0,0-1.892,2.838v35.686C847.159,496.816,848.006,497.239,849.051,496.716Z" transform="translate(-724.664 -433.128)"/><path class="x" d="M837.853,494.887a3.558,3.558,0,0,0,1.892-2.838V474.372c0-1.044-.847-1.468-1.892-.946a3.561,3.561,0,0,0-1.891,2.838v17.677C835.962,494.987,836.809,495.41,837.853,494.887Z" transform="translate(-722.997 -435.537)"/><path class="x" d="M794.071,516.783a3.559,3.559,0,0,0,1.891-2.838V496.268c0-1.044-.847-1.468-1.891-.946a3.56,3.56,0,0,0-1.892,2.838v17.677C792.179,516.883,793.026,517.306,794.071,516.783Z" transform="translate(-716.477 -438.797)"/><path class="x" d="M726.95,550.365a3.56,3.56,0,0,0,1.892-2.838V529.85c0-1.045-.847-1.468-1.892-.946a3.559,3.559,0,0,0-1.891,2.838v17.677C725.059,550.464,725.906,550.888,726.95,550.365Z" transform="translate(-706.482 -443.798)"/></g><g transform="translate(726.177 420.483)"><path class="v" d="M955.584,500.738a3.56,3.56,0,0,0,1.891-2.838v-9.187c0-1.045-.847-1.468-1.891-.946a3.558,3.558,0,0,0-1.892,2.838v9.188C953.692,500.837,954.539,501.261,955.584,500.738Z" transform="translate(-767.957 -468.761)"/><path class="v" d="M965.6,492.4a3.558,3.558,0,0,0,1.891-2.838v-1.119c0-1.045-.847-1.468-1.891-.946a3.558,3.558,0,0,0-1.892,2.838v1.119C963.707,492.5,964.554,492.924,965.6,492.4Z" transform="translate(-769.449 -468.721)"/><path class="v" d="M879.377,535.461a3.56,3.56,0,0,0,1.892-2.838V531.5c0-1.044-.847-1.468-1.892-.946a3.561,3.561,0,0,0-1.891,2.838v1.12C877.486,535.56,878.333,535.983,879.377,535.461Z" transform="translate(-756.61 -475.133)"/><path class="v" d="M737.353,606.5a3.558,3.558,0,0,0,1.891-2.838v-1.119c0-1.044-.847-1.468-1.891-.946a3.559,3.559,0,0,0-1.892,2.838v1.119C735.461,606.6,736.308,607.025,737.353,606.5Z" transform="translate(-735.461 -485.712)"/><path class="v" d="M890.282,533.335a3.559,3.559,0,0,0,1.891-2.838V521.31c0-1.044-.847-1.468-1.891-.946a3.56,3.56,0,0,0-1.892,2.838v9.188C888.39,533.435,889.237,533.858,890.282,533.335Z" transform="translate(-758.233 -473.615)"/><path class="v" d="M746.89,605.061a3.56,3.56,0,0,0,1.891-2.838v-9.187c0-1.045-.847-1.468-1.891-.946A3.558,3.558,0,0,0,745,594.928v9.188C745,605.16,745.845,605.584,746.89,605.061Z" transform="translate(-736.881 -484.296)"/><path class="v" d="M868.337,544.31a3.56,3.56,0,0,0,1.892-2.838v-9.187c0-1.045-.847-1.468-1.892-.946a3.558,3.558,0,0,0-1.891,2.838v9.188C866.446,544.409,867.293,544.833,868.337,544.31Z" transform="translate(-754.966 -475.249)"/><path class="v" d="M945.452,513.488a3.56,3.56,0,0,0,1.892-2.838V482.838c0-1.044-.847-1.467-1.892-.946a3.561,3.561,0,0,0-1.891,2.838v27.812C943.561,513.587,944.408,514.01,945.452,513.488Z" transform="translate(-766.449 -467.887)"/><path class="v" d="M934.621,534.08a3.56,3.56,0,0,0,1.891-2.838v-64.6c0-1.044-.847-1.468-1.891-.946a3.559,3.559,0,0,0-1.892,2.838v64.6C932.729,534.179,933.576,534.6,934.621,534.08Z" transform="translate(-764.836 -465.475)"/><path class="v" d="M768.393,617.165a3.559,3.559,0,0,0,1.892-2.838v-64.6c0-1.044-.847-1.467-1.892-.946a3.56,3.56,0,0,0-1.891,2.838v64.6C766.5,617.264,767.349,617.687,768.393,617.165Z" transform="translate(-740.083 -477.847)"/><path class="v" d="M834.193,590.9a3.559,3.559,0,0,0,1.891-2.838V507.358c0-1.045-.847-1.468-1.891-.946a3.557,3.557,0,0,0-1.892,2.838v80.708C832.3,591,833.148,591.427,834.193,590.9Z" transform="translate(-749.881 -471.538)"/><path class="v" d="M811.71,602.148a3.559,3.559,0,0,0,1.892-2.838V518.6c0-1.044-.847-1.468-1.892-.946a3.561,3.561,0,0,0-1.891,2.838V601.2C809.819,602.247,810.666,602.67,811.71,602.148Z" transform="translate(-746.534 -473.212)"/><path class="v" d="M822.887,608.6a3.557,3.557,0,0,0,1.892-2.838V495.413c0-1.044-.847-1.468-1.892-.946A3.56,3.56,0,0,0,821,497.305V607.654C821,608.7,821.843,609.122,822.887,608.6Z" transform="translate(-748.198 -469.759)"/><path class="v" d="M923.735,532.124a3.56,3.56,0,0,0,1.892-2.838v-46.66c0-1.045-.847-1.468-1.892-.946a3.559,3.559,0,0,0-1.891,2.838v46.66C921.844,532.223,922.691,532.647,923.735,532.124Z" transform="translate(-763.215 -467.855)"/><path class="v" d="M779.7,604.091l.534-.266a3.059,3.059,0,0,0,1.625-2.437V554.193c0-.9-.728-1.261-1.625-.813l-.534.267a3.057,3.057,0,0,0-1.625,2.438v47.194C778.079,604.176,778.807,604.54,779.7,604.091Z" transform="translate(-741.807 -478.536)"/><path class="v" d="M845.56,571.174a3.559,3.559,0,0,0,1.892-2.838V521.675c0-1.044-.847-1.468-1.892-.946a3.561,3.561,0,0,0-1.891,2.838v46.661C843.669,571.273,844.516,571.7,845.56,571.174Z" transform="translate(-751.574 -473.67)"/><path class="v" d="M801.13,593.393a3.558,3.558,0,0,0,1.892-2.838V543.9c0-1.044-.847-1.468-1.892-.946a3.56,3.56,0,0,0-1.891,2.838v46.66C799.239,593.493,800.086,593.916,801.13,593.393Z" transform="translate(-744.958 -476.978)"/><path class="v" d="M912.32,533.245a3.559,3.559,0,0,0,1.892-2.838V494.721c0-1.044-.847-1.468-1.892-.946a3.56,3.56,0,0,0-1.891,2.838V532.3C910.429,533.344,911.276,533.768,912.32,533.245Z" transform="translate(-761.515 -469.656)"/><path class="v" d="M901.123,531.416a3.56,3.56,0,0,0,1.891-2.838V510.9c0-1.045-.847-1.468-1.891-.946a3.558,3.558,0,0,0-1.892,2.838v17.677C899.231,531.515,900.078,531.939,901.123,531.416Z" transform="translate(-759.848 -472.065)"/><path class="v" d="M857.34,553.312a3.56,3.56,0,0,0,1.892-2.838V532.8c0-1.045-.847-1.468-1.892-.946a3.559,3.559,0,0,0-1.891,2.838v17.677C855.449,553.411,856.3,553.835,857.34,553.312Z" transform="translate(-753.328 -475.326)"/><path class="v" d="M757.139,603.438a3.559,3.559,0,0,0,1.892-2.838V582.923c0-1.045-.847-1.468-1.892-.945a3.558,3.558,0,0,0-1.891,2.838v17.677C755.248,603.537,756.095,603.96,757.139,603.438Z" transform="translate(-738.407 -482.79)"/><path class="v" d="M790.22,586.894a3.56,3.56,0,0,0,1.891-2.838V566.379c0-1.045-.847-1.468-1.891-.945a3.557,3.557,0,0,0-1.892,2.838v17.677C788.328,586.993,789.175,587.417,790.22,586.894Z" transform="translate(-743.333 -480.326)"/></g><path class="y" d="M1523.854,829.352l-479.436-72.138L931.892,830.789l-18.129,8.771,128.409,195.145h481.682Z" transform="translate(-35.835 -88.434)"/><g transform="translate(863.043 401.174)"><path class="z" d="M992.655,739.369l-2.218.722c-10.266,3.061-19.176,1.814-25.2-3.213l5.231,11.978c7.952,1.62,17.747-.072,28.386-5.461Z" transform="translate(-906.544 -486.58)"/><path class="aa" d="M1085.614,804.9c-4.283-9.519-12.537-18.011-24.769-25.081-37.648-21.757-98.687-21.5-136.335.259-12.233,7.07-20.486,15.3-24.769,24.822l-3.467,1.117.094,7.079c1.026,13.6,10.407,26.8,28.141,37.048,37.648,21.758,98.785,21.843,136.433.086,17.734-10.25,27.17-23.275,28.53-36.874l-.206-6.474Z" transform="translate(-896.274 -490.565)"/><path class="ab" d="M992.775,748.15c-24.7,0-49.393,5.44-68.236,16.319-37.686,21.758-37.686,57.035,0,78.792,18.843,10.88,43.539,16.319,68.236,16.319s49.394-5.439,68.236-16.319c37.686-21.757,37.686-57.034,0-78.792C1042.169,753.59,1017.472,748.15,992.775,748.15Z" transform="translate(-896.274 -488.259)"/><g transform="translate(0.627 260.135)"><path class="ac" d="M1061.527,764.793c-18.269-10.548-42.646-16.356-68.642-16.356s-50.374,5.809-68.642,16.356c-17.561,10.139-27.232,23.373-27.232,37.264s9.671,27.124,27.232,37.263c18.269,10.548,42.646,16.356,68.642,16.356s50.374-5.809,68.642-16.356c17.561-10.139,27.232-23.373,27.232-37.263S1079.088,774.932,1061.527,764.793Z" transform="translate(-897.011 -748.437)"/></g><path class="ad" d="M1000.361,769.293c-13.709,0-27.42,3.02-37.88,9.059-20.921,12.078-20.921,31.661,0,43.739,10.46,6.039,24.17,9.059,37.88,9.059s27.42-3.02,37.88-9.059c20.92-12.078,20.92-31.661,0-43.739C1027.781,772.313,1014.072,769.293,1000.361,769.293Z" transform="translate(-903.796 -491.407)"/><g transform="translate(45.059 277.296)"><path class="ae" d="M1037.6,777.387c-9.815-5.667-22.911-8.787-36.877-8.787s-27.062,3.12-36.877,8.787c-9.434,5.447-14.629,12.557-14.629,20.019s5.2,14.572,14.629,20.019c9.815,5.667,22.911,8.787,36.877,8.787s27.062-3.12,36.877-8.787c9.434-5.447,14.629-12.557,14.629-20.019S1047.034,782.834,1037.6,777.387Z" transform="translate(-949.216 -768.6)"/></g><path class="af" d="M991.255,756.212l-.05,34.846c0,2.434,1.2,5,4.418,6.856a23.964,23.964,0,0,0,11.551,2.779A20.865,20.865,0,0,0,1017.927,798c3.141-1.814,4.055-4.162,4.055-6.539,0-1.463.712-34.743.712-34.743Z" transform="translate(-910.41 -489.459)"/><path class="ag" d="M1006.984,746.143a22.721,22.721,0,0,0-11.115,2.658c-6.14,3.545-6.14,9.291,0,12.835a24.564,24.564,0,0,0,22.231,0c6.139-3.544,6.139-9.29,0-12.835A22.727,22.727,0,0,0,1006.984,746.143Z" transform="translate(-910.419 -487.96)"/><g transform="translate(83.445 258.381)"><path class="ah" d="M1016.832,748.614a20.829,20.829,0,0,0-18.787,0c-2.4,1.387-3.726,3.2-3.726,5.1s1.323,3.712,3.726,5.1a20.83,20.83,0,0,0,18.787,0c2.4-1.387,3.726-3.2,3.726-5.1S1019.235,750,1016.832,748.614Z" transform="translate(-994.319 -746.376)"/></g><path class="ai" d="M1058.249,559.568l.876-4.984c-5.409,0-5.482,6.135-5.482,6.135v76.128c0,13.67-6.255,29.55-16.157,43.415-7.962,11.148-18.12,20.994-29.112,27.34-4.183,2.415-3.681,8.648-3.681,8.648,1.228-.621,2.448-1.293,3.7-2.014,28.578-16.5,52.053-53.231,52.053-81.809V558.979Z" transform="translate(-912.416 -459.435)"/><path class="aj" d="M1064.473,560.5c0-3.269-2.361-5.919-5.273-5.919-.207,0-.643.94-1.128,1.883-.752,1.46-.348,13.028-.348,13.028V639.13c0,24.663-20.74,56.518-45.4,70.756a61.124,61.124,0,0,1-7.646,3.778l7.878,2.856c28.578-16.5,52.247-53.232,52.247-81.809C1064.8,634.712,1064.473,560.63,1064.473,560.5Z" transform="translate(-912.416 -459.435)"/><g transform="translate(98.856 118.195)"><path class="ak" d="M1013.145,713.13l-.719-1.142c25.319-14.617,45.092-44.849,45.092-68.825V582.626l1.36-.963v61.5C1058.878,667.565,1038.834,698.3,1013.145,713.13Z" transform="translate(-1012.426 -581.663)"/></g><path class="al" d="M994.995,746.557l5.77,8.623,13.882-.288,6.012-9.006Z" transform="translate(-910.974 -487.922)"/><g transform="translate(82.295 246.872)"><path class="am" d="M1017.454,735.288a22.651,22.651,0,0,0-20.433,0c-2.614,1.509-4.054,3.478-4.054,5.547s1.44,4.037,4.054,5.546a22.651,22.651,0,0,0,20.433,0c2.614-1.509,4.054-3.478,4.054-5.546S1020.067,736.8,1017.454,735.288Z" transform="translate(-992.967 -732.853)"/></g><g transform="translate(84.408 246.694)"><path class="an" d="M1016.311,734.718a19.3,19.3,0,0,0-17.408,0c-2.227,1.285-3.453,2.964-3.453,4.725s1.226,3.439,3.453,4.725a19.308,19.308,0,0,0,17.408,0c2.227-1.286,3.453-2.964,3.453-4.725S1018.538,736,1016.311,734.718Z" transform="translate(-995.45 -732.644)"/></g><path class="ao" d="M955.157,596.07v81.07c0,24.494,19.62,44.35,43.533,44.35,25.241,0,44.861-19.856,44.861-44.35V596.07Z" transform="translate(-905.042 -465.613)"/><path class="ap" d="M1064.855,579.338a2.967,2.967,0,0,0-4.828-2.327l-.006-.008-9.242,5.289-2.26,7.685,14.981-8.141A2.979,2.979,0,0,0,1064.855,579.338Z" transform="translate(-918.945 -462.677)"/><g transform="translate(48.756 108.139)"><path class="aq" d="M1032.027,577.619c-8.681-5.012-20.265-7.772-32.616-7.772s-24.083,2.76-32.764,7.772c-5.112,2.952-13.086,6.827-13.086,6.827v10.88c0,6.6,4.742,12.889,13.086,17.706,8.681,5.012,20.339,7.772,32.69,7.772s23.973-2.76,32.654-7.772c8.344-4.817,12.958-11.106,12.958-17.706l0-11.414A108.311,108.311,0,0,1,1032.027,577.619Z" transform="translate(-953.56 -569.847)"/></g><g transform="translate(49.05 97.259)"><path class="ar" d="M1032.079,564.836c-8.681-5.012-20.265-7.772-32.616-7.772s-23.936,2.76-32.616,7.772c-8.345,4.818-12.94,11.106-12.94,17.706s4.6,12.889,12.94,17.707c8.68,5.012,20.264,7.772,32.616,7.772s23.935-2.76,32.616-7.772c8.344-4.818,12.94-11.106,12.94-17.707S1040.423,569.654,1032.079,564.836Z" transform="translate(-953.906 -557.064)"/></g><g transform="translate(50.115 0)"><path class="as" d="M1044.088,567.806l-.414-76.636c0-26.05-17.98-48.382-44.031-48.382s-44.058,20.694-44.058,46.745l-.429,73.943v-.018c0,.1.015.191.015.291,0,6.439,4.5,12.57,12.638,17.269,8.469,4.89,19.777,7.58,31.827,7.58s23.356-2.694,31.824-7.583c8.141-4.7,12.626-8.652,12.626-15.092,0-.1-.009,1.882-.011,1.882Z" transform="translate(-955.157 -442.788)"/><g transform="translate(2.408 101.295)"><path class="at" d="M1001.631,581.847a2.1,2.1,0,1,1,2.055-2.138A2.1,2.1,0,0,1,1001.631,581.847Zm-11.463-.6a2,2,0,1,1,.252.027A1.584,1.584,0,0,1,990.168,581.247Zm20.477-2.168a2.1,2.1,0,1,1,2.405,1.719,1.358,1.358,0,0,1-.336.028A2.1,2.1,0,0,1,1010.646,579.079Zm-31.758-.153a2.1,2.1,0,1,1,.6.084A2.228,2.228,0,0,1,978.888,578.926Zm42.675-2.25a2.08,2.08,0,0,1,1.272-2.67,2.1,2.1,0,1,1,1.4,3.956,2.363,2.363,0,0,1-.7.111A2.069,2.069,0,0,1,1021.563,576.675Zm-53.41-2.152a2.07,2.07,0,1,1,.992.266A2,2,0,0,1,968.153,574.523Zm63.656-2.265a2.117,2.117,0,1,1,1.79.992A2.1,2.1,0,0,1,1031.809,572.258Zm-73.216-4.571a2.1,2.1,0,1,1,2.964.014,2.074,2.074,0,0,1-2.964-.014Zm82.2-2.083a2.089,2.089,0,1,1,1.216.392A2.062,2.062,0,0,1,1040.8,565.6Z" transform="translate(-957.986 -561.806)"/></g><g transform="translate(2.408 52.373)"><path class="au" d="M1001.631,524.365a2.1,2.1,0,1,1,2.055-2.139A2.1,2.1,0,0,1,1001.631,524.365Zm-11.463-.6a1.994,1.994,0,1,1,.252.028A1.578,1.578,0,0,1,990.168,523.764Zm20.477-2.167a2.1,2.1,0,1,1,2.405,1.719,1.358,1.358,0,0,1-.336.028A2.1,2.1,0,0,1,1010.646,521.6Zm-31.758-.153a2.1,2.1,0,1,1,.6.083A2.261,2.261,0,0,1,978.888,521.444Zm42.675-2.25a2.081,2.081,0,0,1,1.272-2.671,2.1,2.1,0,1,1,1.4,3.956,2.362,2.362,0,0,1-.7.112A2.07,2.07,0,0,1,1021.563,519.193Zm-53.41-2.153a2.071,2.071,0,1,1,.992.266A1.991,1.991,0,0,1,968.153,517.04Zm63.656-2.264a2.1,2.1,0,1,1,2.894.671,2.019,2.019,0,0,1-1.1.322A2.115,2.115,0,0,1,1031.809,514.776Zm-73.216-4.571a2.076,2.076,0,1,1,1.495.629A2.074,2.074,0,0,1,958.593,510.205Zm82.2-2.083a2.087,2.087,0,1,1,1.216.392A2.063,2.063,0,0,1,1040.8,508.122Z" transform="translate(-957.986 -504.324)"/></g><g transform="translate(2.408 62.157)"><path class="av" d="M1001.631,535.861a2.1,2.1,0,1,1,2.055-2.138A2.1,2.1,0,0,1,1001.631,535.861Zm-11.463-.6a2,2,0,1,1,.252.027A1.577,1.577,0,0,1,990.168,535.261Zm20.477-2.168a2.1,2.1,0,1,1,2.405,1.72,1.4,1.4,0,0,1-.336.027A2.1,2.1,0,0,1,1010.646,533.093Zm-31.758-.153a2.1,2.1,0,1,1,.6.084A2.228,2.228,0,0,1,978.888,532.94Zm42.675-2.25a2.08,2.08,0,0,1,1.272-2.67,2.1,2.1,0,1,1,1.4,3.956,2.365,2.365,0,0,1-.7.111A2.068,2.068,0,0,1,1021.563,530.689Zm-53.41-2.152a2.07,2.07,0,1,1,.992.266A2,2,0,0,1,968.153,528.537Zm63.656-2.265a2.1,2.1,0,1,1,2.894.671,2.019,2.019,0,0,1-1.1.322A2.115,2.115,0,0,1,1031.809,526.272ZM958.593,521.7a2.1,2.1,0,1,1,2.964.014,2.074,2.074,0,0,1-2.964-.014Zm82.2-2.083a2.089,2.089,0,1,1,1.216.391A2.062,2.062,0,0,1,1040.8,519.618Z" transform="translate(-957.986 -515.82)"/></g><g transform="translate(2.408 71.942)"><path class="au" d="M1001.631,547.358a2.1,2.1,0,1,1,2.055-2.139A2.1,2.1,0,0,1,1001.631,547.358Zm-11.463-.6a1.994,1.994,0,1,1,.252.028A1.585,1.585,0,0,1,990.168,546.757Zm20.477-2.167a2.1,2.1,0,1,1,2.405,1.719,1.361,1.361,0,0,1-.336.028A2.1,2.1,0,0,1,1010.646,544.59Zm-31.758-.153a2.1,2.1,0,1,1,.6.083A2.261,2.261,0,0,1,978.888,544.437Zm42.675-2.25a2.081,2.081,0,0,1,1.272-2.671,2.1,2.1,0,1,1,1.4,3.956,2.362,2.362,0,0,1-.7.112A2.07,2.07,0,0,1,1021.563,542.186Zm-53.41-2.153a2.07,2.07,0,1,1,.992.266A1.991,1.991,0,0,1,968.153,540.033Zm63.656-2.265a2.1,2.1,0,1,1,2.894.672,2.018,2.018,0,0,1-1.1.321A2.113,2.113,0,0,1,1031.809,537.768Zm-73.216-4.57a2.076,2.076,0,1,1,1.495.629A2.073,2.073,0,0,1,958.593,533.2Zm82.2-2.083a2.087,2.087,0,1,1,1.216.392A2.063,2.063,0,0,1,1040.8,531.115Z" transform="translate(-957.986 -527.317)"/></g><g transform="translate(2.408 81.726)"><path class="av" d="M1001.631,558.854a2.1,2.1,0,1,1,2.055-2.138A2.1,2.1,0,0,1,1001.631,558.854Zm-11.463-.6a2,2,0,1,1,.252.027A1.584,1.584,0,0,1,990.168,558.254Zm20.477-2.168a2.1,2.1,0,1,1,2.405,1.719,1.361,1.361,0,0,1-.336.028A2.1,2.1,0,0,1,1010.646,556.086Zm-31.758-.153a2.1,2.1,0,1,1,.6.084A2.226,2.226,0,0,1,978.888,555.933Zm42.675-2.25a2.08,2.08,0,0,1,1.272-2.67,2.1,2.1,0,1,1,1.4,3.956,2.363,2.363,0,0,1-.7.112A2.069,2.069,0,0,1,1021.563,553.682Zm-53.41-2.152a2.07,2.07,0,1,1,.992.266A2,2,0,0,1,968.153,551.53Zm63.656-2.265a2.1,2.1,0,1,1,2.894.671,2.019,2.019,0,0,1-1.1.322A2.115,2.115,0,0,1,1031.809,549.265Zm-73.216-4.571a2.1,2.1,0,1,1,2.964.014,2.074,2.074,0,0,1-2.964-.014Zm82.2-2.083a2.089,2.089,0,1,1,1.216.391A2.062,2.062,0,0,1,1040.8,542.611Z" transform="translate(-957.986 -538.813)"/></g><g transform="translate(2.408 91.511)"><path class="au" d="M1001.631,570.351a2.1,2.1,0,1,1,2.055-2.139A2.1,2.1,0,0,1,1001.631,570.351Zm-11.463-.6a1.993,1.993,0,1,1,.252.028A1.586,1.586,0,0,1,990.168,569.75Zm20.477-2.167a2.1,2.1,0,1,1,2.405,1.719,1.361,1.361,0,0,1-.336.028A2.1,2.1,0,0,1,1010.646,567.583Zm-31.758-.154a2.1,2.1,0,1,1,.6.084A2.228,2.228,0,0,1,978.888,567.429Zm42.675-2.249a2.081,2.081,0,0,1,1.272-2.671,2.1,2.1,0,1,1,1.4,3.956,2.364,2.364,0,0,1-.7.112A2.07,2.07,0,0,1,1021.563,565.179Zm-53.41-2.153a2.07,2.07,0,1,1,.992.266A1.99,1.99,0,0,1,968.153,563.026Zm63.656-2.265a2.1,2.1,0,1,1,2.894.672,2.018,2.018,0,0,1-1.1.321A2.112,2.112,0,0,1,1031.809,560.761Zm-73.216-4.57a2.076,2.076,0,1,1,1.495.629A2.073,2.073,0,0,1,958.593,556.191Zm82.2-2.083a2.087,2.087,0,1,1,1.216.392A2.062,2.062,0,0,1,1040.8,554.108Z" transform="translate(-957.986 -550.31)"/></g><g transform="translate(2.408 101.295)"><path class="aw" d="M1001.631,581.847a2.1,2.1,0,1,1,2.055-2.138A2.1,2.1,0,0,1,1001.631,581.847Zm-11.463-.6a2,2,0,1,1,.252.027A1.584,1.584,0,0,1,990.168,581.247Zm20.477-2.168a2.1,2.1,0,1,1,2.405,1.719,1.358,1.358,0,0,1-.336.028A2.1,2.1,0,0,1,1010.646,579.079Zm-31.758-.153a2.1,2.1,0,1,1,.6.084A2.228,2.228,0,0,1,978.888,578.926Zm42.675-2.25a2.08,2.08,0,0,1,1.272-2.67,2.1,2.1,0,1,1,1.4,3.956,2.363,2.363,0,0,1-.7.111A2.069,2.069,0,0,1,1021.563,576.675Zm-53.41-2.152a2.07,2.07,0,1,1,.992.266A2,2,0,0,1,968.153,574.523Zm63.656-2.265a2.1,2.1,0,1,1,2.894.671,2.019,2.019,0,0,1-1.1.322A2.115,2.115,0,0,1,1031.809,572.258Zm-73.216-4.571a2.1,2.1,0,1,1,2.964.014,2.074,2.074,0,0,1-2.964-.014Zm82.2-2.083a2.089,2.089,0,1,1,1.216.392A2.062,2.062,0,0,1,1040.8,565.6Z" transform="translate(-957.986 -561.806)"/></g><g transform="translate(2.408 111.08)"><path class="au" d="M1001.631,593.344a2.1,2.1,0,1,1,2.055-2.139A2.1,2.1,0,0,1,1001.631,593.344Zm-11.463-.6a1.994,1.994,0,1,1,.252.028A1.585,1.585,0,0,1,990.168,592.743Zm20.477-2.167a2.1,2.1,0,1,1,2.405,1.719,1.358,1.358,0,0,1-.336.028A2.1,2.1,0,0,1,1010.646,590.576Zm-31.758-.154a2.1,2.1,0,1,1,.6.084A2.228,2.228,0,0,1,978.888,590.422Zm42.675-2.25a2.081,2.081,0,0,1,1.272-2.67,2.1,2.1,0,1,1,1.4,3.956,2.362,2.362,0,0,1-.7.112A2.069,2.069,0,0,1,1021.563,588.172Zm-53.41-2.152a2.071,2.071,0,1,1,.992.266A2,2,0,0,1,968.153,586.019Zm63.656-2.265a2.1,2.1,0,1,1,2.894.672,2.018,2.018,0,0,1-1.1.321A2.113,2.113,0,0,1,1031.809,583.754Zm-73.216-4.57a2.076,2.076,0,1,1,1.495.629A2.073,2.073,0,0,1,958.593,579.184Zm82.2-2.083a2.086,2.086,0,1,1,1.216.392A2.062,2.062,0,0,1,1040.8,577.1Z" transform="translate(-957.986 -573.303)"/></g><g transform="translate(2.408 120.865)"><path class="av" d="M1001.631,604.84a2.1,2.1,0,1,1,2.055-2.138A2.1,2.1,0,0,1,1001.631,604.84Zm-11.463-.6a1.994,1.994,0,1,1,.252.028A1.5,1.5,0,0,1,990.168,604.239Zm20.477-2.167a2.1,2.1,0,1,1,2.405,1.719,1.361,1.361,0,0,1-.336.028A2.1,2.1,0,0,1,1010.646,602.072Zm-31.758-.153a2.1,2.1,0,1,1,.6.084A2.228,2.228,0,0,1,978.888,601.919Zm42.675-2.25a2.08,2.08,0,0,1,1.272-2.67,2.1,2.1,0,0,1,2.684,1.272,2.123,2.123,0,0,1-1.286,2.684,2.363,2.363,0,0,1-.7.111A2.068,2.068,0,0,1,1021.563,599.668Zm-53.41-2.152a2.07,2.07,0,1,1,.992.266A2,2,0,0,1,968.153,597.516Zm63.656-2.265a2.1,2.1,0,1,1,2.894.671,2.019,2.019,0,0,1-1.1.322A2.115,2.115,0,0,1,1031.809,595.251Zm-73.216-4.571a2.1,2.1,0,1,1,2.964.014,2.074,2.074,0,0,1-2.964-.014Zm82.2-2.083a2.089,2.089,0,1,1,1.216.391A2.061,2.061,0,0,1,1040.8,588.6Z" transform="translate(-957.986 -584.799)"/></g><g transform="translate(2.408 41.19)"><path class="ax" d="M990.168,510.625a1.993,1.993,0,1,1,.252.028A1.586,1.586,0,0,1,990.168,510.625Zm11.182,2.8a1.993,1.993,0,1,1,.251.028A1.58,1.58,0,0,1,1001.351,513.421Zm9.295-4.963a2.1,2.1,0,1,1,2.405,1.719,1.36,1.36,0,0,1-.336.028A2.1,2.1,0,0,1,1010.646,508.458Zm-31.758-.153a2.1,2.1,0,1,1,.6.083A2.261,2.261,0,0,1,978.888,508.3Zm42.675-2.25a2.08,2.08,0,0,1,1.272-2.67,2.1,2.1,0,0,1,2.684,1.272,2.124,2.124,0,0,1-1.286,2.684,2.464,2.464,0,0,1-.7.112A2.07,2.07,0,0,1,1021.563,506.054Zm-53.41-2.153a2.071,2.071,0,1,1,.992.266A1.991,1.991,0,0,1,968.153,503.9Zm63.656-2.264a2.1,2.1,0,1,1,2.894.671,2.019,2.019,0,0,1-1.1.322A2.115,2.115,0,0,1,1031.809,501.637Zm-73.216-4.571a2.1,2.1,0,1,1,2.964.014,2.074,2.074,0,0,1-2.964-.014Zm82.2-2.083a2.088,2.088,0,1,1,1.216.392A2.086,2.086,0,0,1,1040.8,494.983Z" transform="translate(-957.986 -491.185)"/></g><path class="ay" d="M982.044,483.639a2.094,2.094,0,1,0,2.712-1.188A2.094,2.094,0,0,0,982.044,483.639Z" transform="translate(-959.139 -448.673)"/><path class="az" d="M994.613,487.387a2.1,2.1,0,0,0,1.775,2.376,1.1,1.1,0,0,0,.307.028,2.094,2.094,0,1,0-2.082-2.4Z" transform="translate(-961.029 -449.164)"/><path class="ba" d="M966.346,469.047a2.1,2.1,0,1,0,0-4.193,2.056,2.056,0,0,0-.9.215q-.614.9-1.187,1.837c0,.014,0,.029,0,.044A2.094,2.094,0,0,0,966.346,469.047Z" transform="translate(-956.511 -446.074)"/><path class="bb" d="M970.955,476.654a2.108,2.108,0,0,0,.349,2.95,2.04,2.04,0,0,0,1.3.448,2.091,2.091,0,0,0,1.3-3.732A2.094,2.094,0,0,0,970.955,476.654Z" transform="translate(-957.443 -447.713)"/><path class="bc" d="M1044.115,475.786a2.166,2.166,0,0,0,1.243.405,2.1,2.1,0,1,0-1.243-.405Z" transform="translate(-968.276 -447.137)"/><path class="bd" d="M1009.789,490.5a.18.18,0,0,0,.083-.014,1.839,1.839,0,1,0-.083.014Z" transform="translate(-962.982 -449.267)"/><path class="be" d="M1022.319,484.633a2.088,2.088,0,0,0,.475,4.124,1.96,1.96,0,0,0,.489-.055,2.1,2.1,0,0,0,1.552-2.517A2.076,2.076,0,0,0,1022.319,484.633Z" transform="translate(-964.916 -449.01)"/><path class="bf" d="M1010.459,472.953a2.092,2.092,0,1,1,2.5,1.593,2.579,2.579,0,0,1-.461.056A2.113,2.113,0,0,1,1010.459,472.953Zm-11.182,4.193a2.092,2.092,0,1,1,2.5,1.593,2.569,2.569,0,0,1-.461.056A2.113,2.113,0,0,1,999.277,477.146Zm-9.462-2.977a2.1,2.1,0,1,1,2.558-1.5,2.116,2.116,0,0,1-2.027,1.565A2.232,2.232,0,0,1,989.814,474.169Zm31.256-4.64a2.111,2.111,0,0,1,.726-2.88,2.094,2.094,0,0,1,2.153,3.592,2.024,2.024,0,0,1-1.078.294A2.112,2.112,0,0,1,1021.07,469.529Zm-42.061-.14a2.1,2.1,0,0,1,2.321-3.495,2.1,2.1,0,0,1-1.175,3.844A2.045,2.045,0,0,1,979.009,469.388Zm50.656-7.016a2.1,2.1,0,0,1,.769-4.124,2.1,2.1,0,0,1-.39,4.165A1.786,1.786,0,0,1,1029.665,462.372Zm-57.63-3.551a2.1,2.1,0,1,1,2.1,2.1A2.094,2.094,0,0,1,972.035,458.821Z" transform="translate(-957.67 -444.863)"/><g transform="translate(21.06 5.641)"><path class="bg" d="M1002.81,467.942l-.012,0Z" transform="translate(-983.311 -452.174)"/><path class="bh" d="M982,453.581a2.092,2.092,0,0,0,.28-4.165c-.76.423-1.507.864-2.236,1.332a2.056,2.056,0,0,0-.141.736A2.1,2.1,0,0,0,982,453.581Z" transform="translate(-979.902 -449.416)"/><path class="bi" d="M1002.48,467.14a2.23,2.23,0,0,0,2.487-2.118,2.4,2.4,0,0,0-2.082-2.456,2.189,2.189,0,0,0-2.292,2.009c-.112,1.157.721,2.554,1.875,2.563C1002.537,467.133,1002.411,467.14,1002.48,467.14Z" transform="translate(-982.982 -451.372)"/><path class="bj" d="M1015.748,465.926a2.26,2.26,0,0,0,.432-.042,2.12,2.12,0,1,0-.432.042Z" transform="translate(-984.927 -451.25)"/><path class="bk" d="M989.471,462.642a2.249,2.249,0,0,0,.432-.042,2.119,2.119,0,1,0-.432.042Z" transform="translate(-981.014 -450.76)"/><path class="bl" d="M1026.476,456.981a2.1,2.1,0,0,0-.447,2.935,2.146,2.146,0,0,0,1.691.854,2.114,2.114,0,0,0,1.692-3.355A2.114,2.114,0,0,0,1026.476,456.981Z" transform="translate(-986.71 -450.482)"/></g><g transform="translate(35.648 5.275)"><path class="bm" d="M998.556,454.084a2.121,2.121,0,0,0,.587.084,2.059,2.059,0,0,0,2-1.51,2.089,2.089,0,1,0-2.586,1.426Z" transform="translate(-997.042 -449.133)"/><path class="bn" d="M1012.151,454.824a1.587,1.587,0,0,0,.363-.028,2.123,2.123,0,1,0-.363.028Z" transform="translate(-998.979 -449.231)"/><path class="bo" d="M1023.648,453.182a1.581,1.581,0,0,0,.363-.028,2.122,2.122,0,1,0-.363.028Z" transform="translate(-1000.691 -448.986)"/></g><path class="bp" d="M1005.615,446.246a2.082,2.082,0,0,0,1.841-3.083c-.2,0-.405-.015-.611-.015-1.056,0-2.094.047-3.123.116a2.072,2.072,0,0,0-.2.885A2.094,2.094,0,0,0,1005.615,446.246Z" transform="translate(-962.358 -442.842)"/><g transform="translate(2.575 28.75)"><path class="bq" d="M975.883,496.051a2.12,2.12,0,0,0,.908.209,2.084,2.084,0,0,0,1.888-1.188,2.1,2.1,0,1,0-2.8.979Z" transform="translate(-960.641 -478.876)"/><path class="br" d="M964.253,485.625a2.1,2.1,0,0,0,1.552,3.508,2.127,2.127,0,0,0,1.552-.685,2.1,2.1,0,1,0-3.1-2.823Z" transform="translate(-959.005 -477.815)"/><path class="bs" d="M987.151,497.959a2.094,2.094,0,0,0,1.566,2.516,1.84,1.84,0,0,0,.475.056,2.1,2.1,0,0,0,.475-4.137A2.08,2.08,0,0,0,987.151,497.959Z" transform="translate(-962.488 -479.512)"/><path class="bt" d="M1049.026,483.277a2.091,2.091,0,0,0,.294,2.949,2.164,2.164,0,0,0,1.329.461,2.053,2.053,0,0,0,1.621-.768,2.092,2.092,0,1,0-3.244-2.642Z" transform="translate(-971.639 -477.451)"/><path class="bu" d="M1015.3,502.109a1.025,1.025,0,0,0,.21-.014,2.053,2.053,0,1,0-.21.014Z" transform="translate(-966.377 -479.748)"/><path class="bv" d="M1002.166,505.393a1.084,1.084,0,0,0,.21-.014,2.06,2.06,0,1,0-.21.014Z" transform="translate(-964.421 -480.237)"/><path class="bw" d="M959.377,476.578l-1.194,3.639a2.1,2.1,0,0,0,1.4.54,1.026,1.026,0,0,0,.21-.014,2.093,2.093,0,1,0-.419-4.165Z" transform="translate(-958.183 -476.568)"/><path class="bx" d="M1027.625,495.568a2.094,2.094,0,0,0,.574,4.109,1.962,1.962,0,0,0,.573-.084,2.092,2.092,0,1,0-1.146-4.025Z" transform="translate(-968.297 -479.385)"/><path class="by" d="M1039.284,490.772a2.1,2.1,0,0,0-.782,2.866,2.066,2.066,0,0,0,1.817,1.061,1.956,1.956,0,0,0,1.035-.279,2.087,2.087,0,0,0,.8-2.851A2.116,2.116,0,0,0,1039.284,490.772Z" transform="translate(-970.102 -478.644)"/><path class="bz" d="M1034.357,480.918a2.1,2.1,0,0,0-.782,2.866,2.065,2.065,0,0,0,1.817,1.062,1.955,1.955,0,0,0,1.035-.279,2.088,2.088,0,0,0,.8-2.851A2.116,2.116,0,0,0,1034.357,480.918Z" transform="translate(-969.368 -477.176)"/></g></g><g transform="translate(43.315 151.918)"><path class="ca" d="M962.333,719.665c-5.119-4.273-8.365-11.276-8.365-20.686V625.027l-2.154.82.133-4.562c-1.984,0-4.778,2.635-4.778,6.024V702.49c0,16.509,8.053,26.684,20.184,29.154Z" transform="translate(-947.168 -621.286)"/></g><path class="cb" d="M968.934,634.941a3.236,3.236,0,0,0-3.236-3.236,3.2,3.2,0,0,0-2,.711l-.007-.009-10.023,5.736-1.363,7.744,15.16-8.239A3.23,3.23,0,0,0,968.934,634.941Z" transform="translate(-904.617 -470.919)"/><g transform="translate(47.396 151.836)"><path class="cc" d="M985.915,726.52c-15.754,2.052-27.154-7.145-27.154-25.272V627.3c0,.056.078-6.107-5-6.107a7.708,7.708,0,0,0-1.118.082c-.624,2.6-.677,7.2-.677,11.563v71.924c0,24.044,17.2,34.474,39.494,27.409a19.235,19.235,0,0,0,2.384-1.087s-5.083-1.471-6.644-4.912C987.162,726.092,986.761,726.322,985.915,726.52Z" transform="translate(-951.962 -621.19)"/></g><g transform="translate(46.036 159.349)"><path class="cd" d="M960.843,730.328c-6.673-4.886-10.479-13.152-10.479-24.255V637.29l1.36-7.273v76.056a34.536,34.536,0,0,0,3.486,15.913A32.454,32.454,0,0,0,960.843,730.328Z" transform="translate(-950.364 -630.017)"/></g></g></g></svg>