<svg xmlns="http://www.w3.org/2000/svg" width="28.512" height="33.746" viewBox="0 0 28.512 33.746"><defs><style>.a{fill:#fff;}</style></defs><path class="a" d="M992.135,358.657a.845.845,0,0,0,.847-.846V342.92a.845.845,0,1,0-1.691,0v14.891A.844.844,0,0,0,992.135,358.657Z" transform="translate(-983.141 -330.822)"/><path class="a" d="M999.892,358.657a.847.847,0,0,0,.847-.846V342.92a.846.846,0,1,0-1.692,0v14.891A.845.845,0,0,0,999.892,358.657Z" transform="translate(-985.636 -330.822)"/><path class="a" d="M1007.65,358.657a.845.845,0,0,0,.845-.846V342.92a.845.845,0,1,0-1.69,0v14.891A.844.844,0,0,0,1007.65,358.657Z" transform="translate(-988.131 -330.822)"/><path class="a" d="M1006.1,329.795H1000v-1.806a2.5,2.5,0,0,0-2.5-2.5h-7.939a2.5,2.5,0,0,0-2.5,2.5v1.806h-6.1a1.691,1.691,0,0,0,0,3.382h1.063v24.648a1.408,1.408,0,0,0,1.408,1.408h20.19a1.408,1.408,0,0,0,1.408-1.408V333.176h1.061a1.691,1.691,0,1,0,0-3.382Zm-16.78-1.806a.246.246,0,0,1,.246-.248H997.5a.248.248,0,0,1,.248.248v1.806h-8.433Zm12.9,28.427h-17.37V333.176h17.37Z" transform="translate(-979.277 -325.487)"/></svg>