<svg xmlns="http://www.w3.org/2000/svg" width="34.352" height="25.764" viewBox="0 0 34.352 25.764"><defs><style>.a{fill:#fff;}</style></defs><g transform="translate(0 -64)"><path class="a" d="M33.668,170.667H9.336a2.843,2.843,0,0,0-2.776,2.176l0,.015-4.19,14.147a.717.717,0,0,0,.022.47,2.849,2.849,0,0,0,2.654,1.8H29.374a2.853,2.853,0,0,0,2.747-2.076c.006-.015.012-.031.017-.047l4.252-12.737a.7.7,0,0,0,.029-.124,2.774,2.774,0,0,0,.112-.76A2.865,2.865,0,0,0,33.668,170.667Z" transform="translate(-2.179 -99.51)"/><path class="a" d="M.716,78.862A.715.715,0,0,0,1.4,78.35L3,72.964,3,72.94a4.288,4.288,0,0,1,4.154-3.214H29.211a.716.716,0,0,0,.674-.955,2.865,2.865,0,0,0-2.69-1.907h-13.3L11.241,64.21a.715.715,0,0,0-.506-.21H2.863A2.865,2.865,0,0,0,0,66.863V78.146a.716.716,0,0,0,.613.708A.653.653,0,0,0,.716,78.862Z"/></g></svg>