<svg xmlns="http://www.w3.org/2000/svg" width="28.679" height="32" viewBox="0 0 28.679 32"><defs><style>.a{fill:#fff;}</style></defs><path class="a" d="M202.356,105.753a1.25,1.25,0,0,1-1.25,1.25h-4.181a5.006,5.006,0,0,1-5-5V80a5.006,5.006,0,0,1,5-5h15.368a5.006,5.006,0,0,1,5,5V87.69a1.25,1.25,0,0,1-2.5,0V80a2.5,2.5,0,0,0-2.5-2.5H196.925a2.5,2.5,0,0,0-2.5,2.5v22a2.5,2.5,0,0,0,2.5,2.5h4.181A1.25,1.25,0,0,1,202.356,105.753Zm8.688-23.25H198.168a1.25,1.25,0,0,0,0,2.5h12.875a1.25,1.25,0,0,0,0-2.5Zm1.25,6.25a1.25,1.25,0,0,0-1.25-1.25H198.168a1.25,1.25,0,0,0,0,2.5h12.875A1.25,1.25,0,0,0,212.293,88.753ZM198.168,92.5a1.25,1.25,0,0,0,0,2.5h7.819a1.25,1.25,0,0,0,0-2.5Zm21.339,5.9-6.848,6.835a1.249,1.249,0,0,1-.549.32l-5.045,1.4a1.25,1.25,0,0,1-1.53-1.568l1.495-4.92a1.25,1.25,0,0,1,.313-.522L214.2,93.1a3.75,3.75,0,0,1,5.3,5.3Zm-3.779.239-1.768-1.768-4.631,4.62-.743,2.446,2.538-.7Zm2.011-3.775a1.251,1.251,0,0,0-1.768,0l-.241.241,1.768,1.768.242-.242A1.251,1.251,0,0,0,217.739,94.869Z" transform="translate(-191.925 -75.003)"/></svg>