<svg xmlns="http://www.w3.org/2000/svg" xmlns:xlink="http://www.w3.org/1999/xlink" width="43" height="43" viewBox="0 0 43 43"><defs><style>.a{fill:none;}.b{clip-path:url(#a);}.c{fill:#002173;}.d{clip-path:url(#b);}.e{fill:#fff;}.f{fill:#c61018;}</style><clipPath id="a"><circle class="a" cx="21.5" cy="21.5" r="21.5" transform="translate(-0.464)"/></clipPath><clipPath id="b"><rect class="a" width="65" height="43" transform="translate(-0.464 0)"/></clipPath></defs><g transform="translate(0.464)"><g class="b"><g transform="translate(-11 0)"><rect class="c" width="65" height="43" transform="translate(-0.464 0)"/><g class="d"><g transform="translate(-7.403 -0.615)"><g transform="translate(0)"><g transform="translate(0 0)"><rect class="e" width="86" height="6.45" transform="translate(2.885 0) rotate(26.565)"/><g transform="translate(0.481 2.885)"><rect class="f" width="2.15" height="43" transform="translate(0 1.923) rotate(-63.435)"/><rect class="f" width="2.15" height="43" transform="translate(39.422 19.23) rotate(-63.435)"/></g></g><g transform="translate(0)"><rect class="e" width="86" height="6.45" transform="translate(0 38.46) rotate(-26.565)"/><g transform="translate(1.442 0.961)"><rect class="f" width="43" height="2.15" transform="translate(0 40.383) rotate(-26.565)"/><rect class="f" width="43" height="2.15" transform="translate(37.499 19.23) rotate(-26.565)"/></g></g></g><g transform="translate(2.278 0.615)"><path class="e" d="M1950.25,2666.125H1918V2650h-10.75v16.125H1875v10.75h32.25V2693H1918v-16.125h32.25Z" transform="translate(-1875 -2650)"/><path class="f" d="M1950.25,2668.275h-34.4V2650h-6.45v18.275H1875v6.45h34.4V2693h6.45v-18.275h34.4Z" transform="translate(-1875 -2650)"/></g></g></g></g></g></g></svg>