<svg xmlns="http://www.w3.org/2000/svg" width="36.972" height="40.333" viewBox="0 0 36.972 40.333"><defs><style>.a{fill:#81c5ff;}</style></defs><g transform="translate(-592 -321.332)"><path class="a" d="M727.237,325.954a4.621,4.621,0,0,0-4.621-4.622H703.289a4.621,4.621,0,0,0-4.621,4.622v22.687a4.621,4.621,0,0,0,4.621,4.621h19.327a4.621,4.621,0,0,0,4.621-4.621ZM719.255,345.7h-12.6a1.26,1.26,0,1,1,0-2.521h12.6a1.26,1.26,0,1,1,0,2.521Zm0-5.042h-12.6a1.26,1.26,0,1,1,0-2.521h12.6a1.26,1.26,0,1,1,0,2.521Zm0-5.042h-12.6a1.26,1.26,0,1,1,0-2.521h12.6a1.26,1.26,0,1,1,0,2.521Zm0,0" transform="translate(-98.265)"/><path class="a" d="M605.024,404.914a7.15,7.15,0,0,1-7.142-7.142V375.084c0-.145.034-.279.042-.42h-1.3A4.626,4.626,0,0,0,592,379.286v26.889a4.626,4.626,0,0,0,4.622,4.622h20.167a4.625,4.625,0,0,0,4.621-4.622v-1.26Zm0,0" transform="translate(0 -49.131)"/></g></svg>