<svg xmlns="http://www.w3.org/2000/svg" width="48.037" height="37.79" viewBox="0 0 48.037 37.79"><defs><style>.a{fill:#89c9ff;}</style></defs><g transform="translate(-476.295 -1131.569)"><path class="a" d="M506.97,1144.72c-.911.138-1.476.754-1.262,1.371l-.005,0a12.8,12.8,0,0,1,.73,4.289,13.112,13.112,0,0,1-.746,4.338c-.219.617.359,1.228,1.275,1.375a2.647,2.647,0,0,0,.387.029,1.71,1.71,0,0,0,1.654-.885,15.116,15.116,0,0,0,.834-4.857,14.853,14.853,0,0,0-.826-4.813A1.84,1.84,0,0,0,506.97,1144.72Z"/><path class="a" d="M519.2,1134.972a2.113,2.113,0,0,0-2.262-.549c-.848.265-1.209.949-.811,1.519h-.008a24.142,24.142,0,0,1,0,28.905c-.4.572-.037,1.253.819,1.523a2.374,2.374,0,0,0,.715.1,1.9,1.9,0,0,0,1.547-.656,25.731,25.731,0,0,0,0-30.847Z"/><path class="a" d="M514.71,1141.2a1.988,1.988,0,0,0-2.162-.7c-.882.2-1.354.854-1.046,1.449a18.3,18.3,0,0,1,2.091,8.43,18.581,18.581,0,0,1-2.113,8.494c-.307.594.164,1.25,1.053,1.453a2.522,2.522,0,0,0,.552.061,1.806,1.806,0,0,0,1.617-.772,20.265,20.265,0,0,0,2.29-9.236A19.807,19.807,0,0,0,514.71,1141.2Z"/><path class="a" d="M498.1,1132.179c-2.41,1.545-8.573,6.8-12.121,9.875h-8.421a1.262,1.262,0,0,0-1.261,1.261v14.5a1.262,1.262,0,0,0,1.261,1.262h8.655c3.579,3.1,9.53,8.16,11.887,9.672,3.005,1.926,3.39-1.328,3.39-1.328v-33.914S501.1,1130.251,498.1,1132.179Z"/></g></svg>