<svg xmlns="http://www.w3.org/2000/svg" width="54" height="54" viewBox="0 0 54 54"><defs><style>.a{opacity:0.32;}</style></defs><g class="a" transform="translate(-543 -462)"><path d="M590.25,462h-40.5a6.757,6.757,0,0,0-6.75,6.75v40.5a6.757,6.757,0,0,0,6.75,6.75h40.5a6.757,6.757,0,0,0,6.75-6.75v-40.5a6.757,6.757,0,0,0-6.75-6.75Zm-40.5,4.5h40.5a2.252,2.252,0,0,1,2.25,2.25v15.943l-7.409-7.409a2.25,2.25,0,0,0-3.182,0l-15.847,15.847-5.722-5.722a2.25,2.25,0,0,0-3.182,0l-9.659,9.659V468.75a2.252,2.252,0,0,1,2.25-2.25Zm40.5,45h-40.5a2.252,2.252,0,0,1-2.25-2.25v-5.818l11.25-11.25,13.034,13.033a2.249,2.249,0,1,0,3.182-3.181l-5.722-5.722L583.5,482.058l9,9V509.25a2.252,2.252,0,0,1-2.25,2.25Zm0,0" transform="translate(0 0)"/><path d="M616,530.5a4.5,4.5,0,1,1-4.5-4.5,4.5,4.5,0,0,1,4.5,4.5Zm0,0" transform="translate(-55 -55)"/></g></svg>