<svg xmlns="http://www.w3.org/2000/svg" xmlns:xlink="http://www.w3.org/1999/xlink" width="297.54" height="85.538" viewBox="0 0 297.54 85.538"><defs><style>.a{fill:url(#a);}.b{fill:url(#b);}.c{fill:url(#c);}.d{fill:url(#d);}.e{fill:url(#e);}.f{fill:#424242;}</style><linearGradient id="a" x1="-9.486" y1="0.837" x2="-8.999" y2="1.875" gradientUnits="objectBoundingBox"><stop offset="0" stop-color="#1e88e5"/><stop offset="1" stop-color="#35b3ff"/></linearGradient><linearGradient id="b" x1="-8.83" y1="-1.244" x2="-9.569" y2="0.133" xlink:href="#a"/><linearGradient id="c" x1="-13.823" y1="0.757" x2="-13.336" y2="1.795" xlink:href="#a"/><linearGradient id="d" x1="-13.167" y1="-1.328" x2="-13.906" y2="0.049" xlink:href="#a"/><linearGradient id="e" x1="9.625" y1="3.538" x2="10.625" y2="3.538" xlink:href="#a"/></defs><g transform="translate(-217.498 -29.236)"><g transform="translate(264.233 53.965)"><path class="a" d="M294.216,54.6H283.242L265.427,73.124H276.4Z" transform="translate(-265.427 -54.597)"/><path class="b" d="M294.216,91.149,276.4,73.6H265.427l17.815,17.552Z" transform="translate(-265.427 -55.07)"/></g><g transform="translate(291.736 60.578)"><path class="c" d="M293.633,61.378h7.248l11.766,12.236H305.4Z" transform="translate(-293.633 -61.378)"/><path class="d" d="M293.633,85.52,305.4,73.927h7.248L300.881,85.52Z" transform="translate(-293.633 -61.691)"/></g><path class="e" d="M231.67,109.419a57.432,57.432,0,0,0,5.429,5.354l5.318-5.318-2.694-2.7a49.036,49.036,0,0,1-2.6-66.636l5.407,5.408a41.437,41.437,0,0,0,2.575,55.841l2.7,2.694L263.972,87.9l.261-.259a18.779,18.779,0,0,1,0-31.2l-5.461-5.46A25.777,25.777,0,0,0,255.9,53.5l-.019-.018a26.25,26.25,0,0,0-2.5,34.224l-5.427,5.424A33.811,33.811,0,0,1,250.5,48.106l2.7-2.7-16.1-16.1-.073-.073-1.294,1.291a56.377,56.377,0,0,0-4.062,78.892Z"/><g transform="translate(334.808 56.965)"><path class="f" d="M354.812,62c5.794,0,8.712,4.491,8.712,8.982s-2.917,8.944-8.712,8.944H348.9v8.943h-3.914V62Zm0,14.088a4.777,4.777,0,0,0,4.875-5.068c0-2.572-1.613-5.1-4.875-5.1H348.9V76.092Z" transform="translate(-344.984 -61.658)"/><path class="f" d="M364.007,65.807a13.579,13.579,0,0,1,19.384,0,13.809,13.809,0,0,1,0,19.424,13.579,13.579,0,0,1-19.384,0,13.809,13.809,0,0,1,0-19.424Zm16.62,2.765a9.878,9.878,0,0,0-6.949-2.917,9.633,9.633,0,0,0-6.87,2.917,9.826,9.826,0,0,0,0,13.895,9.633,9.633,0,0,0,6.87,2.917,9.881,9.881,0,0,0,6.949-16.812Z" transform="translate(-340.403 -61.739)"/><path class="f" d="M392.5,62.033c8.789,0,13.2,6.718,13.2,13.435s-4.414,13.4-13.2,13.4h-9.636V62.033Zm0,22.955c6.219,0,9.366-4.76,9.366-9.52s-3.147-9.557-9.366-9.557h-5.759V84.988Z" transform="translate(-333.438 -61.649)"/><path class="f" d="M406.01,84.988h12.63v3.876H402.135V62.033h3.875Z" transform="translate(-327.566 -61.649)"/><path class="f" d="M431.973,81.047h-9.636c-1.037,2.457-2.38,5.681-3.223,7.907H414.93l10.786-27.215h2.839l10.788,27.215H435.2ZM423.8,77.4h6.677l-3.3-9.48Z" transform="translate(-323.666 -61.739)"/><path class="f" d="M438.6,88.989V65.613h-8.137V62h20.112v3.609h-8.1V88.989Z" transform="translate(-318.933 -61.658)"/><path class="f" d="M448.867,65.807a13.577,13.577,0,0,1,19.382,0,13.806,13.806,0,0,1,0,19.424,13.577,13.577,0,0,1-19.382,0,13.806,13.806,0,0,1,0-19.424Zm16.62,2.765a9.882,9.882,0,0,0-6.949-2.917,9.636,9.636,0,0,0-6.871,2.917,9.826,9.826,0,0,0,0,13.895,9.636,9.636,0,0,0,6.871,2.917,9.881,9.881,0,0,0,6.949-16.812Z" transform="translate(-314.54 -61.739)"/><path class="f" d="M472.986,75.246h4.53a4.668,4.668,0,1,0,0-9.327h-5.95V88.873h-3.837V62h9.787a8.321,8.321,0,0,1,8.751,8.559,8.088,8.088,0,0,1-6.947,8.215l8.484,10.1h-5.03l-9.788-11.785Z" transform="translate(-307.575 -61.658)"/></g></g></svg>