<svg xmlns="http://www.w3.org/2000/svg" width="358.664" height="68.472" viewBox="0 0 358.664 68.472"><defs><style>.a{opacity:0.44;}.b{fill:none;stroke:#218ee8;stroke-miterlimit:10;stroke-width:2px;}</style></defs><g class="a" transform="translate(-77.105 -54.75)"><line class="b" y2="13.694" transform="translate(78.105 82.139)"/><line class="b" y1="4.98" transform="translate(83.694 86.496)"/><line class="b" y1="3.735" transform="translate(89.282 87.118)"/><line class="b" y1="3.735" transform="translate(139.314 87.118)"/><line class="b" y1="2.49" transform="translate(94.871 87.741)"/><line class="b" y1="14.192" transform="translate(100.46 81.89)"/><line class="b" y1="28.633" transform="translate(106.049 74.669)"/><line class="b" y1="62.247" transform="translate(111.638 57.862)"/><line class="b" y1="23.654" transform="translate(117.227 77.159)"/><line class="b" y1="12.449" transform="translate(122.815 82.761)"/><line class="b" y1="23.654" transform="translate(128.404 77.159)"/><line class="b" y1="7.47" transform="translate(133.993 85.251)"/><line class="b" y1="7.47" transform="translate(145.171 85.251)"/><line class="b" y1="22.409" transform="translate(150.76 77.781)"/><line class="b" y1="6.916" transform="translate(190.149 85.528)"/><line class="b" y1="13.833" transform="translate(196.006 82.069)"/><line class="b" y2="2.305" transform="translate(201.595 87.833)"/><line class="b" y1="41.083" transform="translate(156.348 68.444)"/><line class="b" y1="16.184" transform="translate(161.937 80.894)"/><line class="b" y1="7.47" transform="translate(167.526 85.251)"/><line class="b" y1="3.735" transform="translate(173.115 87.118)"/><line class="b" y1="13.833" transform="translate(207.418 82.069)"/><line class="b" y1="41.498" transform="translate(213.006 68.237)"/><line class="b" y1="49.797" transform="translate(218.595 64.087)"/><line class="b" y1="68.472" transform="translate(224.184 54.75)"/><line class="b" y1="49.797" transform="translate(229.773 64.087)"/><line class="b" y2="35.273" transform="translate(235.362 71.349)"/><line class="b" y1="22.409" transform="translate(178.704 77.781)"/><line class="b" y1="9.959" transform="translate(184.293 84.006)"/><line class="b" y2="25.36" transform="translate(242.021 76.306)"/><line class="b" y2="16.599" transform="translate(247.61 80.686)"/><line class="b" y1="3.735" transform="translate(253.199 87.118)"/><line class="b" y1="13" transform="translate(303.769 82.542)"/><line class="b" y1="2.49" transform="translate(258.788 87.741)"/><line class="b" y2="3.735" transform="translate(428.528 87.118)"/><line class="b" y2="16.184" transform="translate(421.868 80.894)"/><line class="b" y2="3.735" transform="translate(410.69 87.118)"/><line class="b" y1="14.192" transform="translate(264.377 81.89)"/><line class="b" y1="28.633" transform="translate(269.966 74.669)"/><line class="b" y1="16.184" transform="translate(275.555 80.894)"/><line class="b" y1="23.654" transform="translate(281.143 77.159)"/><line class="b" y1="41.083" transform="translate(286.732 68.444)"/><line class="b" y1="36.103" transform="translate(292.321 70.934)"/><line class="b" y1="28.634" transform="translate(297.91 74.669)"/><line class="b" y1="36.103" transform="translate(309.087 70.934)"/><line class="b" y1="49.797" transform="translate(314.676 64.087)"/><line class="b" y1="3.735" transform="translate(354.066 87.118)"/><line class="b" y1="7.47" transform="translate(359.922 85.251)"/><line class="b" y2="1.245" transform="translate(365.511 88.363)"/><line class="b" y2="1.245" transform="translate(434.769 88.363)"/><line class="b" y1="7.47" transform="translate(416.095 85.251)"/><line class="b" y2="1.245" transform="translate(404.683 88.363)"/><line class="b" y1="68.472" transform="translate(320.265 54.75)"/><line class="b" y1="36.103" transform="translate(325.854 70.934)"/><line class="b" y1="22.409" transform="translate(331.443 77.781)"/><line class="b" y1="9.959" transform="translate(337.032 84.006)"/><line class="b" y1="7.47" transform="translate(371.334 85.251)"/><line class="b" y1="22.409" transform="translate(376.923 77.781)"/><line class="b" y1="8.715" transform="translate(382.512 84.628)"/><line class="b" y1="16.184" transform="translate(388.101 80.894)"/><line class="b" y1="7.47" transform="translate(393.69 85.251)"/><line class="b" y1="3.735" transform="translate(399.279 87.118)"/><line class="b" y1="22.409" transform="translate(342.621 77.781)"/><line class="b" y1="9.959" transform="translate(348.209 84.006)"/></g></svg>