<svg xmlns="http://www.w3.org/2000/svg" width="25.861" height="25.861" viewBox="0 0 25.861 25.861"><defs><style>.a{fill:#35b3ff;}</style></defs><path class="a" d="M801.445,234.038l-7.589-7.589a.664.664,0,0,0-1.045.139,5.1,5.1,0,0,0-.339,4.015l-5.07,5.069a9.046,9.046,0,0,0-4.046-1.007,6.4,6.4,0,0,0-4.585,1.8.664.664,0,0,0,0,.939l4.8,4.8-7.627,8.819a.663.663,0,0,0,.936.936l8.819-7.627,4.8,4.8a.664.664,0,0,0,.938,0c2.075-2.074,2.371-5.493.789-8.632l5.069-5.069a5.16,5.16,0,0,0,4.017-.34.664.664,0,0,0,.138-1.045Z" transform="translate(-775.779 -226.254)"/></svg>