<svg xmlns="http://www.w3.org/2000/svg" width="1073.855" height="49.747" viewBox="0 0 1073.855 49.747"><defs><style>.a{fill:none;stroke:#7f7f7f;stroke-linecap:round;stroke-linejoin:round;stroke-width:2px;}</style></defs><g transform="translate(-191.694 -280.666)"><path class="a" d="M707.41,162.6l2.779-6.745a2.149,2.149,0,0,1,4.111.485l1.73,10.974a2.15,2.15,0,0,0,4.266-.155l1.478-17.664a2.15,2.15,0,0,1,4.289.077l1.444,30.313a2.149,2.149,0,0,0,4.288.077l1.759-21.007a2.149,2.149,0,0,1,4.243-.27l.9,4.2a2.149,2.149,0,0,0,4.162.162l1.493-5.017a2.149,2.149,0,0,1,4.066-.155l1.954,5.1a2.15,2.15,0,0,0,3.793.429l1.6-2.395a2.15,2.15,0,0,1,3.572,0l.714,1.066a2.15,2.15,0,0,0,3.919-.927l1.512-12a2.15,2.15,0,0,1,4.271.044l2.169,20.648a2.149,2.149,0,0,0,4.254.153l.344-1.92a2.149,2.149,0,0,1,4.254.156l1.466,14.225a2.149,2.149,0,0,0,4.283-.085l2.565-41.151a2.149,2.149,0,0,1,4.281-.111l2.271,19.927a2.15,2.15,0,0,0,3.922.952l.449-.672a2.149,2.149,0,0,1,3.68.182l.459.855a2.149,2.149,0,0,0,3.944-.369l1.415-4.488a2.149,2.149,0,0,1,4.172.311l2.475,15.7a2.149,2.149,0,0,0,4.225.116l1.895-8.839a2.15,2.15,0,0,1,4.065-.427l1.051,2.356a2.15,2.15,0,0,0,3.925,0l2.15-4.817a2.149,2.149,0,0,1,3.749-.32l.847,1.264a2.149,2.149,0,0,0,3.869-.67l1.083-4.295a2.149,2.149,0,0,1,4.189.092l2.135,10.358a2.149,2.149,0,0,0,4.155.213l1.867-5.924a2.149,2.149,0,0,1,3.835-.549l.529.791a2.15,2.15,0,0,0,3.869-.665l2.055-8.053a2.149,2.149,0,0,1,4.2.153l1.561,8.739a2.149,2.149,0,0,0,4.245-.087l1.519-11.05a2.149,2.149,0,0,1,4.264.049l1.225,10.734a2.149,2.149,0,0,0,4.278-.077l.626-8.028a2.149,2.149,0,0,1,4.286.007l1.335,17.938a2.149,2.149,0,0,0,4.288-.019L898.9,151a2.149,2.149,0,0,1,4.289.014l1.646,27.653a2.149,2.149,0,0,0,4.289.015l1.395-20.813a2.15,2.15,0,0,1,4.227-.391l1.633,6.351a2.15,2.15,0,0,0,4.133.111l1.434-4.553a2.15,2.15,0,0,1,4.092-.027l1.094,3.317a2.149,2.149,0,0,0,3.827.522l1.463-2.186a2.15,2.15,0,0,1,3.572,0l.859,1.282a2.149,2.149,0,0,0,3.909-.862l2.068-13.117a2.149,2.149,0,0,1,4.264.156l2.4,28.618a2.149,2.149,0,0,0,4.277.063l1.868-16.384a2.15,2.15,0,0,1,4.225-.265l1.279,5.257a2.15,2.15,0,0,0,4.077.311l1.451-3.521a2.149,2.149,0,0,1,3.881-.2h0a2.149,2.149,0,0,0,3.944-.369l1.323-4.2a2.15,2.15,0,0,1,4.179.342l.789,5.524a2.149,2.149,0,0,0,4.264-.075l2.257-21.054a2.149,2.149,0,0,1,4.283.1l2.519,42.3a2.149,2.149,0,0,0,4.284.078l1.876-19.6a2.149,2.149,0,0,1,4.223-.32l0,.008a2.149,2.149,0,0,0,4.046.35l.859-1.924a2.149,2.149,0,0,1,4.012.23l1.367,4.339a2.149,2.149,0,0,0,4.165-.269l1.667-9.332a2.15,2.15,0,0,1,4.249.112l1.531,12.285a2.149,2.149,0,0,0,4.272-.061l1.558-16.273a2.149,2.149,0,0,1,4.281.025l1.561,18.651a2.15,2.15,0,0,0,4.284,0l1.344-15.987a2.15,2.15,0,0,1,4.225-.352l.941,3.691a2.15,2.15,0,0,0,4.07.287l1.243-3.016a2.15,2.15,0,0,1,3.975,0l2.177,5.283a2.148,2.148,0,0,0,3.772.378l.49-.91" transform="translate(-514.41 142.464)"/><path class="a" d="M707.41,162.6l2.779-6.745a2.149,2.149,0,0,1,4.111.485l1.73,10.974a2.15,2.15,0,0,0,4.266-.155l1.478-17.664a2.15,2.15,0,0,1,4.289.077l1.444,30.313a2.149,2.149,0,0,0,4.288.077l1.759-21.007a2.149,2.149,0,0,1,4.243-.27l.9,4.2a2.149,2.149,0,0,0,4.162.162l1.493-5.017a2.149,2.149,0,0,1,4.066-.155l1.954,5.1a2.15,2.15,0,0,0,3.793.429l1.6-2.395a2.15,2.15,0,0,1,3.572,0l.714,1.066a2.15,2.15,0,0,0,3.919-.927l1.512-12a2.15,2.15,0,0,1,4.271.044l2.169,20.648a2.149,2.149,0,0,0,4.254.153l.344-1.92a2.149,2.149,0,0,1,4.254.156l1.466,14.225a2.149,2.149,0,0,0,4.283-.085l2.565-41.151a2.149,2.149,0,0,1,4.281-.111l2.271,19.927a2.15,2.15,0,0,0,3.922.952l.449-.672a2.149,2.149,0,0,1,3.68.182l.459.855a2.149,2.149,0,0,0,3.944-.369l1.415-4.488a2.149,2.149,0,0,1,4.172.311l2.475,15.7a2.149,2.149,0,0,0,4.225.116l1.895-8.839a2.15,2.15,0,0,1,4.065-.427l1.051,2.356a2.15,2.15,0,0,0,3.925,0l2.15-4.817a2.149,2.149,0,0,1,3.749-.32l.847,1.264a2.149,2.149,0,0,0,3.869-.67l1.083-4.295a2.149,2.149,0,0,1,4.189.092l2.135,10.358a2.149,2.149,0,0,0,4.155.213l1.867-5.924a2.149,2.149,0,0,1,3.835-.549l.529.791a2.15,2.15,0,0,0,3.869-.665l2.055-8.053a2.149,2.149,0,0,1,4.2.153l1.561,8.739a2.149,2.149,0,0,0,4.245-.087l1.519-11.05a2.149,2.149,0,0,1,4.264.049l1.225,10.734a2.149,2.149,0,0,0,4.278-.077l.626-8.028a2.149,2.149,0,0,1,4.286.007l1.335,17.938a2.149,2.149,0,0,0,4.288-.019L898.9,151a2.149,2.149,0,0,1,4.289.014l1.646,27.653a2.149,2.149,0,0,0,4.289.015l1.395-20.813a2.15,2.15,0,0,1,4.227-.391l1.633,6.351a2.15,2.15,0,0,0,4.133.111l1.434-4.553a2.15,2.15,0,0,1,4.092-.027l1.094,3.317a2.149,2.149,0,0,0,3.827.522l1.463-2.186a2.15,2.15,0,0,1,3.572,0l.859,1.282a2.149,2.149,0,0,0,3.909-.862l2.068-13.117a2.149,2.149,0,0,1,4.264.156l2.4,28.618a2.149,2.149,0,0,0,4.277.063l1.868-16.384a2.15,2.15,0,0,1,4.225-.265l1.279,5.257a2.15,2.15,0,0,0,4.077.311l1.451-3.521a2.149,2.149,0,0,1,3.881-.2h0a2.149,2.149,0,0,0,3.944-.369l1.323-4.2a2.15,2.15,0,0,1,4.179.342l.789,5.524a2.149,2.149,0,0,0,4.264-.075l2.257-21.054a2.149,2.149,0,0,1,4.283.1l2.519,42.3a2.149,2.149,0,0,0,4.284.078l1.876-19.6a2.149,2.149,0,0,1,4.223-.32l0,.008a2.149,2.149,0,0,0,4.046.35l.859-1.924a2.149,2.149,0,0,1,4.012.23l1.367,4.339a2.149,2.149,0,0,0,4.165-.269l1.667-9.332a2.15,2.15,0,0,1,4.249.112l1.531,12.285a2.149,2.149,0,0,0,4.272-.061l1.558-16.273a2.149,2.149,0,0,1,4.281.025l1.561,18.651a2.15,2.15,0,0,0,4.284,0l1.344-15.987a2.15,2.15,0,0,1,4.225-.352l.941,3.691a2.15,2.15,0,0,0,4.07.287l1.243-3.016a2.15,2.15,0,0,1,3.975,0l2.177,5.283a2.148,2.148,0,0,0,3.772.378l.49-.91" transform="translate(-157.396 142.464)"/><path class="a" d="M707.41,162.6l2.779-6.745a2.149,2.149,0,0,1,4.111.485l1.73,10.974a2.15,2.15,0,0,0,4.266-.155l1.478-17.664a2.15,2.15,0,0,1,4.289.077l1.444,30.313a2.149,2.149,0,0,0,4.288.077l1.759-21.007a2.149,2.149,0,0,1,4.243-.27l.9,4.2a2.149,2.149,0,0,0,4.162.162l1.493-5.017a2.149,2.149,0,0,1,4.066-.155l1.954,5.1a2.15,2.15,0,0,0,3.793.429l1.6-2.395a2.15,2.15,0,0,1,3.572,0l.714,1.066a2.15,2.15,0,0,0,3.919-.927l1.512-12a2.15,2.15,0,0,1,4.271.044l2.169,20.648a2.149,2.149,0,0,0,4.254.153l.344-1.92a2.149,2.149,0,0,1,4.254.156l1.466,14.225a2.149,2.149,0,0,0,4.283-.085l2.565-41.151a2.149,2.149,0,0,1,4.281-.111l2.271,19.927a2.15,2.15,0,0,0,3.922.952l.449-.672a2.149,2.149,0,0,1,3.68.182l.459.855a2.149,2.149,0,0,0,3.944-.369l1.415-4.488a2.149,2.149,0,0,1,4.172.311l2.475,15.7a2.149,2.149,0,0,0,4.225.116l1.895-8.839a2.15,2.15,0,0,1,4.065-.427l1.051,2.356a2.15,2.15,0,0,0,3.925,0l2.15-4.817a2.149,2.149,0,0,1,3.749-.32l.847,1.264a2.149,2.149,0,0,0,3.869-.67l1.083-4.295a2.149,2.149,0,0,1,4.189.092l2.135,10.358a2.149,2.149,0,0,0,4.155.213l1.867-5.924a2.149,2.149,0,0,1,3.835-.549l.529.791a2.15,2.15,0,0,0,3.869-.665l2.055-8.053a2.149,2.149,0,0,1,4.2.153l1.561,8.739a2.149,2.149,0,0,0,4.245-.087l1.519-11.05a2.149,2.149,0,0,1,4.264.049l1.225,10.734a2.149,2.149,0,0,0,4.278-.077l.626-8.028a2.149,2.149,0,0,1,4.286.007l1.335,17.938a2.149,2.149,0,0,0,4.288-.019L898.9,151a2.149,2.149,0,0,1,4.289.014l1.646,27.653a2.149,2.149,0,0,0,4.289.015l1.395-20.813a2.15,2.15,0,0,1,4.227-.391l1.633,6.351a2.15,2.15,0,0,0,4.133.111l1.434-4.553a2.15,2.15,0,0,1,4.092-.027l1.094,3.317a2.149,2.149,0,0,0,3.827.522l1.463-2.186a2.15,2.15,0,0,1,3.572,0l.859,1.282a2.149,2.149,0,0,0,3.909-.862l2.068-13.117a2.149,2.149,0,0,1,4.264.156l2.4,28.618a2.149,2.149,0,0,0,4.277.063l1.868-16.384a2.15,2.15,0,0,1,4.225-.265l1.279,5.257a2.15,2.15,0,0,0,4.077.311l1.451-3.521a2.149,2.149,0,0,1,3.881-.2h0a2.149,2.149,0,0,0,3.944-.369l1.323-4.2a2.15,2.15,0,0,1,4.179.342l.789,5.524a2.149,2.149,0,0,0,4.264-.075l2.257-21.054a2.149,2.149,0,0,1,4.283.1l2.519,42.3a2.149,2.149,0,0,0,4.284.078l1.876-19.6a2.149,2.149,0,0,1,4.223-.32l0,.008a2.149,2.149,0,0,0,4.046.35l.859-1.924a2.149,2.149,0,0,1,4.012.23l1.367,4.339a2.149,2.149,0,0,0,4.165-.269l1.667-9.332a2.15,2.15,0,0,1,4.249.112l1.531,12.285a2.149,2.149,0,0,0,4.272-.061l1.558-16.273a2.149,2.149,0,0,1,4.281.025l1.561,18.651a2.15,2.15,0,0,0,4.284,0l1.344-15.987a2.15,2.15,0,0,1,4.225-.352l.941,3.691a2.15,2.15,0,0,0,4.07.287l1.243-3.016a2.15,2.15,0,0,1,3.975,0l2.177,5.283a2.148,2.148,0,0,0,3.772.378l.49-.91" transform="translate(199.617 142.464)"/></g></svg>