<svg xmlns="http://www.w3.org/2000/svg" width="33.369" height="36.243" viewBox="0 0 33.369 36.243"><defs><style>.a{fill:#fff;}</style></defs><g transform="translate(-678.481 -426.629)"><path class="a" d="M697.662,433.853h17.567a1.1,1.1,0,1,0,0-2.2H697.662a1.1,1.1,0,1,0,0,2.2Z" transform="translate(-4.478 -1.245)"/><path class="a" d="M715.229,466.76H697.662a1.1,1.1,0,1,0,0,2.2h17.567a1.1,1.1,0,1,0,0-2.2Z" transform="translate(-4.478 -9.938)"/><path class="a" d="M715.229,449.256H697.662a1.1,1.1,0,1,0,0,2.2h17.567a1.1,1.1,0,1,0,0-2.2Z" transform="translate(-4.478 -5.603)"/><path class="a" d="M683.433,426.629a4.952,4.952,0,1,0,4.952,4.952A4.958,4.958,0,0,0,683.433,426.629Zm0,8.023a3.071,3.071,0,1,1,3.071-3.071A3.075,3.075,0,0,1,683.433,434.652Z"/><path class="a" d="M683.433,444.133a4.952,4.952,0,1,0,4.952,4.952A4.958,4.958,0,0,0,683.433,444.133Zm0,8.023a3.071,3.071,0,1,1,3.071-3.071A3.075,3.075,0,0,1,683.433,452.156Z" transform="translate(0 -4.334)"/><path class="a" d="M683.433,461.637a4.952,4.952,0,1,0,4.952,4.952A4.958,4.958,0,0,0,683.433,461.637Zm0,8.023a3.071,3.071,0,1,1,3.071-3.071A3.075,3.075,0,0,1,683.433,469.66Z" transform="translate(0 -8.669)"/><path class="a" d="M684.482,430.862a1.767,1.767,0,1,0,1.768,1.767A1.767,1.767,0,0,0,684.482,430.862Z" transform="translate(-1.048 -1.048)"/></g></svg>