<svg xmlns="http://www.w3.org/2000/svg" width="21.994" height="40.254" viewBox="0 0 21.994 40.254"><defs><style>.a{fill:#fff;}</style></defs><path class="a" d="M6.669,37.734a27.028,27.028,0,0,0,2.555,2.52l2.5-2.5-1.268-1.269A23.076,23.076,0,0,1,9.238,5.123l2.544,2.545a19.5,19.5,0,0,0,1.212,26.279l1.269,1.268,7.607-7.607.123-.122a8.838,8.838,0,0,1,0-14.683l-2.57-2.57a12.131,12.131,0,0,0-1.351,1.187l-.009-.008a12.353,12.353,0,0,0-1.177,16.106L14.333,30.07a15.911,15.911,0,0,1,1.2-21.19L16.8,7.61,9.224.034,9.19,0,8.581.608A26.531,26.531,0,0,0,6.669,37.734Z" transform="translate(21.994 40.254) rotate(180)"/></svg>