<svg xmlns="http://www.w3.org/2000/svg" width="82.5" height="88" viewBox="0 0 82.5 88"><defs><style>.a{fill:#fff;}</style></defs><path class="a" d="M131.93.941a2.744,2.744,0,0,1,4.136,0l19.25,22a2.749,2.749,0,0,1-2.068,4.559h-11V63.25A2.751,2.751,0,0,1,139.5,66h-11a2.751,2.751,0,0,1-2.75-2.75V27.5h-11a2.749,2.749,0,0,1-2.068-4.559Z" transform="translate(-92.748)"/><path class="a" d="M71.5,352v16.5H11V352H0v22a5.5,5.5,0,0,0,5.5,5.5H77a5.5,5.5,0,0,0,5.5-5.5V352Z" transform="translate(0 -291.5)"/></svg>