<svg xmlns="http://www.w3.org/2000/svg" xmlns:xlink="http://www.w3.org/1999/xlink" width="224" height="611" viewBox="0 0 224 611"><defs><style>.a{fill:url(#a);}.b{clip-path:url(#d);}.c{opacity:0.11;}.d,.f{fill:none;stroke:#fff;}.d{stroke-width:23px;}.e{opacity:0.16;}.f{stroke-miterlimit:10;stroke-width:2px;}.g{filter:url(#b);}</style><linearGradient id="a" x1="0.5" x2="0.5" y2="1" gradientUnits="objectBoundingBox"><stop offset="0" stop-color="#ffd778"/><stop offset="1" stop-color="#e5ac0e"/></linearGradient><filter id="b" x="-22" y="-14" width="278" height="665" filterUnits="userSpaceOnUse"><feOffset dx="5" dy="13" input="SourceAlpha"/><feGaussianBlur stdDeviation="9" result="c"/><feFlood flood-color="#fead0c" flood-opacity="0.29"/><feComposite operator="in" in2="c"/><feComposite in="SourceGraphic"/></filter><clipPath id="d"><g class="g" transform="matrix(1, 0, 0, 1, 0, 0)"><rect class="a" width="224" height="611" rx="41" transform="translate(1641 425)"/></g></clipPath></defs><g class="b" transform="translate(-1641 -425)"><g class="c" transform="translate(0 349)"><path class="d" d="M3912.431,632.918,3769.665,510.667l-139,122.251" transform="translate(-2018.715 -12.459)"/><path class="d" d="M3912.431,632.918,3769.665,510.667l-139,122.251" transform="translate(-2018.715 120.541)"/><path class="d" d="M3912.431,632.918,3769.665,510.667l-139,122.251" transform="translate(-2018.715 -73.459)"/><path class="d" d="M3912.431,632.918,3769.665,510.667l-139,122.251" transform="translate(-2018.715 59.541)"/></g><g class="e" transform="translate(1201.712 332.917)"><line class="f" y2="36.311" transform="translate(78.105 127.371)"/><line class="f" y1="13.204" transform="translate(92.924 138.925)"/><line class="f" y1="9.903" transform="translate(107.743 140.575)"/><line class="f" y1="9.903" transform="translate(240.403 140.575)"/><line class="f" y1="6.602" transform="translate(122.561 142.226)"/><line class="f" y1="37.631" transform="translate(137.38 126.711)"/><line class="f" y1="75.922" transform="translate(152.199 107.566)"/><line class="f" y1="165.049" transform="translate(167.018 63.002)"/><line class="f" y1="62.718" transform="translate(181.837 114.167)"/><line class="f" y1="33.01" transform="translate(196.656 129.022)"/><line class="f" y1="62.718" transform="translate(211.475 114.167)"/><line class="f" y1="19.806" transform="translate(226.294 135.624)"/><line class="f" y1="19.806" transform="translate(255.931 135.624)"/><line class="f" y1="59.418" transform="translate(270.75 115.818)"/><line class="f" y1="18.339" transform="translate(375.192 136.357)"/><line class="f" y1="36.678" transform="translate(390.721 127.188)"/><line class="f" y2="6.113" transform="translate(405.54 142.47)"/><line class="f" y1="108.932" transform="translate(285.569 91.061)"/><line class="f" y1="42.913" transform="translate(300.388 124.07)"/><line class="f" y1="19.806" transform="translate(315.207 135.624)"/><line class="f" y1="9.903" transform="translate(330.026 140.575)"/><line class="f" y1="36.678" transform="translate(420.98 127.188)"/><line class="f" y1="110.032" transform="translate(435.799 90.511)"/><line class="f" y1="132.039" transform="translate(450.618 79.507)"/><line class="f" y1="181.553" transform="translate(465.437 54.75)"/><line class="f" y1="132.039" transform="translate(480.256 79.507)"/><line class="f" y2="93.528" transform="translate(495.075 98.763)"/><line class="f" y1="59.418" transform="translate(344.845 115.818)"/><line class="f" y1="26.408" transform="translate(359.664 132.323)"/><line class="f" y2="67.242" transform="translate(512.733 111.906)"/><line class="f" y2="44.013" transform="translate(527.552 123.52)"/><line class="f" y1="9.903" transform="translate(542.371 140.575)"/><line class="f" y1="35" transform="translate(676.288 128.083)"/><line class="f" y1="6.602" transform="translate(557.189 142.226)"/><line class="f" y2="9.903" transform="translate(1007.258 140.575)"/><line class="f" y2="42.913" transform="translate(989.599 124.07)"/><line class="f" y2="9.903" transform="translate(959.961 140.575)"/><line class="f" y1="37.631" transform="translate(572.008 126.711)"/><line class="f" y1="75.922" transform="translate(586.827 107.566)"/><line class="f" y1="42.913" transform="translate(601.646 124.07)"/><line class="f" y1="62.718" transform="translate(616.465 114.167)"/><line class="f" y1="108.932" transform="translate(631.284 91.061)"/><line class="f" y1="95.728" transform="translate(646.103 97.663)"/><line class="f" y1="75.922" transform="translate(660.922 107.566)"/><line class="f" y1="95.728" transform="translate(690.56 97.663)"/><line class="f" y1="132.039" transform="translate(705.378 79.507)"/><line class="f" y1="9.903" transform="translate(809.82 140.575)"/><line class="f" y1="19.806" transform="translate(825.349 135.624)"/><line class="f" y2="3.301" transform="translate(840.168 143.876)"/><line class="f" y2="3.301" transform="translate(1023.807 143.876)"/><line class="f" y1="19.806" transform="translate(974.292 135.624)"/><line class="f" y2="3.301" transform="translate(944.034 143.876)"/><line class="f" y1="181.553" transform="translate(720.197 54.75)"/><line class="f" y1="95.728" transform="translate(735.016 97.663)"/><line class="f" y1="59.418" transform="translate(749.835 115.818)"/><line class="f" y1="26.408" transform="translate(764.654 132.323)"/><line class="f" y1="19.806" transform="translate(855.608 135.624)"/><line class="f" y1="59.418" transform="translate(870.427 115.818)"/><line class="f" y1="23.107" transform="translate(885.246 133.973)"/><line class="f" y1="42.913" transform="translate(900.065 124.07)"/><line class="f" y1="19.806" transform="translate(914.884 135.624)"/><line class="f" y1="9.903" transform="translate(929.703 140.575)"/><line class="f" y1="59.418" transform="translate(779.473 115.818)"/><line class="f" y1="26.408" transform="translate(794.292 132.323)"/></g></g></svg>