<svg xmlns="http://www.w3.org/2000/svg" width="119.963" height="94.373" viewBox="0 0 119.963 94.373"><defs><style>.a{fill:#89c9ff;}</style></defs><g transform="translate(-476.295 -1131.569)"><path class="a" d="M508.961,1144.767c-2.275.345-3.686,1.883-3.152,3.424l-.012.005a31.979,31.979,0,0,1,1.823,10.711,32.743,32.743,0,0,1-1.863,10.833c-.547,1.541.9,3.067,3.184,3.434a6.638,6.638,0,0,0,.966.073c1.921,0,3.669-.9,4.13-2.21a37.749,37.749,0,0,0,2.083-12.13,37.093,37.093,0,0,0-2.063-12.019C513.511,1145.347,511.238,1144.4,508.961,1144.767Z" transform="translate(43.939 19.644)"/><path class="a" d="M524.055,1135.959c-1.006-1.441-3.541-2.045-5.649-1.371s-3.019,2.37-2.025,3.793h-.02c8.009,11.433,12,23.749,12,36.088s-3.986,24.666-12,36.1c-1,1.428-.093,3.129,2.045,3.8a5.929,5.929,0,0,0,1.786.262,4.752,4.752,0,0,0,3.863-1.638c8.531-12.194,12.823-25.353,12.823-38.523S532.581,1148.156,524.055,1135.959Z" transform="translate(59.38 4.109)"/><path class="a" d="M519.687,1142.348c-.779-1.5-3.2-2.278-5.4-1.756-2.2.5-3.381,2.133-2.612,3.619a45.708,45.708,0,0,1,5.222,21.052,46.4,46.4,0,0,1-5.277,21.212c-.767,1.483.41,3.122,2.63,3.629a6.308,6.308,0,0,0,1.379.152,4.511,4.511,0,0,0,4.038-1.928,50.605,50.605,0,0,0,5.719-23.065A49.463,49.463,0,0,0,519.687,1142.348Z" transform="translate(52.542 13.268)"/><path class="a" d="M530.744,1133.093c-6.019,3.858-21.409,16.987-30.27,24.661h-21.03a3.15,3.15,0,0,0-3.149,3.149v36.211a3.151,3.151,0,0,0,3.149,3.152h21.614c8.938,7.731,23.8,20.378,29.685,24.154,7.5,4.81,8.466-3.316,8.466-3.316v-84.694S538.248,1128.278,530.744,1133.093Z" transform="translate(0)"/></g></svg>