<svg xmlns="http://www.w3.org/2000/svg" width="25.392" height="35.001" viewBox="0 0 25.392 35.001"><defs><style>.a{fill:#fff;}</style></defs><g transform="translate(-956.401 -512.531)"><path class="a" d="M981.786,520.919a.669.669,0,0,0-.163-.444l-6.749-7.709-.005-.005a.68.68,0,0,0-.136-.114c-.015-.01-.03-.018-.045-.027a.674.674,0,0,0-.136-.057.29.29,0,0,0-.037-.012.626.626,0,0,0-.157-.02H957.773A1.374,1.374,0,0,0,956.4,513.9v32.255a1.375,1.375,0,0,0,1.372,1.374h22.648a1.374,1.374,0,0,0,1.372-1.374V521a.62.62,0,0,0-.006-.077Zm-17.983,23.7-.6-3.056c-.137-.717-.253-1.382-.339-2.193h-.02c-.127.8-.242,1.476-.412,2.193l-.673,3.056H960l-1.687-7.106h1.719l.537,2.932c.157.843.305,1.759.42,2.477h.022c.117-.769.284-1.624.464-2.5l.6-2.909h1.708l.57,2.994c.157.833.273,1.592.379,2.382h.021c.106-.791.263-1.624.411-2.468l.579-2.909h1.635l-1.835,7.106H963.8Zm8.078,0-.55-1.823H969.3l-.506,1.823h-1.665l2.171-7.106H971.4l2.205,7.106Zm5.609,0h-1.877l-2.279-7.106H975.1l.863,3.006c.243.843.464,1.656.634,2.54h.031c.18-.854.4-1.7.643-2.51l.907-3.036h1.707Zm-19.717-8.78V513.9h15.9v7.022a.687.687,0,0,0,.687.687h6.062v14.223Zm0,0" transform="translate(0)"/><path class="a" d="M987.778,573.57h-.021c-.105.422-.21.958-.325,1.37l-.422,1.508h1.57l-.442-1.508c-.126-.422-.254-.948-.359-1.37Zm0,0" transform="translate(-17.479 -34.858)"/><path class="a" d="M975.4,539.3a.7.7,0,0,0-.7-.7h-1.211a.7.7,0,0,0-.7.7v2.982a.7.7,0,0,0,.7.7H974.7a.7.7,0,0,0,.7-.7v.742l6.86,2.974V535.539l-6.86,3.021Zm0,0" transform="translate(-9.362 -13.139)"/></g></svg>